<?xml version="1.0" encoding="utf-8"?>
<!-- Generator: Adobe Illustrator 22.0.1, SVG Export Plug-In . SVG Version: 6.00 Build 0)  -->
<svg version="1.1" id="Layer_1" xmlns="http://www.w3.org/2000/svg" xmlns:xlink="http://www.w3.org/1999/xlink" x="0px" y="0px"
	 viewBox="0 0 128 128" style="enable-background:new 0 0 128 128;" xml:space="preserve">
<style type="text/css">
	.st0{fill:#9B4F96;}
	.st1{fill:#68217A;}
</style>
<path class="st0" d="M24.5,64c0-21.8,17.7-39.5,39.5-39.5c14.7,0,27.5,8.1,34.3,20l-13,7.5C81.1,44.5,73.1,39.5,64,39.5
	c-13.5,0-24.5,11-24.5,24.5c0,4.7,1.3,9,3.6,12.8l74.7-43.4c-0.6-1.2-1.5-2.1-2.4-2.7L67.1,2.9c-0.8-0.5-1.9-0.7-3.1-0.7
	s-2.3,0.3-3.1,0.7l-48,27.9c-1.7,1-2.9,3.5-2.9,5.4v55.7c0,1.1,0.2,2.4,1,3.5l19.1-11.1C26.6,78.4,24.5,71.4,24.5,64z"/>
<g>
	<polygon class="st1" points="101.8,66.2 105.6,66.2 106.5,61.9 102.7,61.9 	"/>
	<path class="st1" d="M117.3,33.3c0,0-13.5,7.8-19.1,11.1c0,0,0,0.1,0.1,0.1l-13,7.5c0,0,0,0,0-0.1C67.5,62.3,60.8,66.2,43,76.5
		c4.3,7.2,12.1,12,21,12c9.1,0,17.1-5,21.3-12.4l12.9,7.6c-6.8,11.8-19.6,19.8-34.2,19.8c-14.5,0-27.1-7.8-34-19.4
		c-5.7,3.3-19.3,11.2-19.3,11.2c0.5,0.8,1.2,1.5,1.9,1.9l48.2,27.9c0.8,0.5,1.9,0.7,3.1,0.7c1.2,0,2.3-0.3,3.1-0.7l48-27.9
		c1.7-1,2.9-3.5,2.9-5.4V36.1C117.9,35.2,117.8,34.2,117.3,33.3z M114.7,61.8h-3.3l-0.9,4.3h4.2v4.7h-5.1l-1.2,6h-4.9l1.2-6h-3.8
		l-1.2,6h-4.8l1.2-6h-2.4v-4.7H97v0.1l0.9-4.3h-4.2v-4.7h5.1L100,51h4.9l-1.2,6.1h3.8l1.2-6.1h4.8l-1.2,6.1h2.4V61.8z"/>
</g>
</svg>
