<?xml version="1.0" encoding="utf-8"?>
<!-- Generator: Adobe Illustrator 22.0.1, SVG Export Plug-In . SVG Version: 6.00 Build 0)  -->
<svg version="1.1" id="Layer_1" xmlns="http://www.w3.org/2000/svg" xmlns:xlink="http://www.w3.org/1999/xlink" x="0px" y="0px"
	 viewBox="0 0 808 807.8" style="enable-background:new 0 0 808 807.8;" xml:space="preserve">
<style type="text/css">
	.st0{fill:#24B8EB;}
</style>
<path id="SVGID_1_" class="st0" d="M167.9,577.4c-22.4,0-42.9-18.4-42.9-40.8c0-22.4,18.4-40.8,42.9-40.8s42.9,18.4,42.9,40.8
	C210.8,559,190.4,577.4,167.9,577.4L167.9,577.4z M694.4,354.9c-4.1-32.6-24.5-59.2-51-79.6l-10.2-8.2l-8.2,10.2
	c-16.3,18.4-22.4,51-20.4,75.5c2,18.4,8.2,36.7,18.4,51c-8.2,4.1-18.4,8.2-26.5,12.2c-18.4,6.1-36.7,8.2-55.1,8.2H12.8l-2,12.2
	c-4.1,38.8,2,79.6,18.4,116.3l8.2,14.3v2c49,81.6,136.7,118.4,232.6,118.4c183.7,0,334.7-79.6,406.1-251
	c46.9,2,93.9-10.2,116.3-55.1l6.1-10.2l-10.2-6.1C761.7,348.8,725,346.8,694.4,354.9L694.4,354.9z M431.1,322.3h-79.6v79.6h79.6
	V322.3z M431.1,222.3h-79.6v79.6h79.6V222.3z M431.1,120.3h-79.6v79.6h79.6C431.1,199.9,431.1,120.3,431.1,120.3z M529.1,322.3
	h-79.6v79.6h79.6V322.3z M233.2,322.3h-79.6v79.6h79.6L233.2,322.3L233.2,322.3z M333.2,322.3h-79.6v79.6h79.6V322.3z M135.3,322.3
	H55.7v79.6h79.6L135.3,322.3L135.3,322.3z M333.2,222.3h-79.6v79.6h79.6V222.3z M233.2,222.3h-79.6v79.6h79.6L233.2,222.3
	L233.2,222.3z"/>
</svg>
