<?xml version="1.0" encoding="utf-8"?>
<!-- Generator: Adobe Illustrator 22.0.1, SVG Export Plug-In . SVG Version: 6.00 Build 0)  -->
<svg version="1.1" id="Layer_1" xmlns="http://www.w3.org/2000/svg" xmlns:xlink="http://www.w3.org/1999/xlink" x="0px" y="0px"
	 viewBox="0 0 1000 1000" style="enable-background:new 0 0 1000 1000;" xml:space="preserve">
<style type="text/css">
	.st0{fill:#DE4C36;}
</style>
<path class="st0" d="M976.3,455.8L544.1,23.6c-24.8-24.9-65.2-24.9-90.2,0l-89.8,89.8l113.8,113.9c26.4-8.9,56.8-3,77.9,18.1
	c21.2,21.2,27.1,51.9,18,78.4l109.7,109.7c26.5-9.1,57.2-3.3,78.4,18c29.6,29.6,29.6,77.6,0,107.3c-29.6,29.6-77.6,29.6-107.3,0
	c-22.3-22.3-27.8-55-16.5-82.5L535.8,374v269.3c7.4,3.7,14.2,8.5,20.1,14.4c29.6,29.6,29.6,77.6,0,107.3
	c-29.6,29.6-77.7,29.6-107.3,0c-29.6-29.7-29.6-77.7,0-107.3c7.1-7.1,15.5-12.8,24.8-16.5V369.2c-9.3-3.8-17.7-9.4-24.8-16.5
	c-22.5-22.4-27.8-55.3-16.3-83L320,157.5L23.7,453.9c-24.9,24.9-24.9,65.3,0,90.2l432.2,432.3c24.8,24.9,65.2,24.9,90.2,0L976.4,546
	C1001.2,521.2,1001.2,480.8,976.3,455.8"/>
</svg>
