<?xml version="1.0" encoding="utf-8"?>
<!-- Generator: Adobe Illustrator 22.0.1, SVG Export Plug-In . SVG Version: 6.00 Build 0)  -->
<svg version="1.1" id="Layer_1" xmlns="http://www.w3.org/2000/svg" xmlns:xlink="http://www.w3.org/1999/xlink" x="0px" y="0px"
	 viewBox="0 0 458 521" style="enable-background:new 0 0 458 521;" xml:space="preserve">
<style type="text/css">
	.st0{fill:#E34F26;}
</style>
<title>HTML5 Logo Badge</title>
<path class="st0" d="M3.5,4.5l41,460l184,52l185-52l41-460H3.5z M369.5,113.5l-3,29l-1,12h-136h-1h-79l5,58h74h1h115h16l-2,15
	l-13,149l-1,10l-115,31.7v0.3h-1l-116-32l-7-89h26h30l4,45l63,17l63-17l7-73h-69h-1h-126l-14-156l-1-15h141h1h141L369.5,113.5z"/>
</svg>
