<?xml version="1.0" encoding="utf-8"?>
<!-- Generator: Adobe Illustrator 22.0.1, SVG Export Plug-In . SVG Version: 6.00 Build 0)  -->
<svg version="1.1" id="Layer_1" xmlns="http://www.w3.org/2000/svg" xmlns:xlink="http://www.w3.org/1999/xlink" x="0px" y="0px"
	 viewBox="0 0 500 500" style="enable-background:new 0 0 500 500;" xml:space="preserve">
<style type="text/css">
	.st0{fill:#FF7C00;}
</style>
<g id="Layer_x0020_1">
	<path class="st0" d="M0,1.5v496.9h500V1.5H0z M458.1,456.8H41.9V43.2h416.2V456.8z"/>
	<g id="_1927324032">
		<path class="st0" d="M335.3,200.6h39.5c1,0,1.8,0.8,1.8,1.8v162.1c0,1-0.8,1.8-1.8,1.8h-39.5c-1,0-1.8-0.8-1.8-1.8V202.4
			C333.4,201.4,334.2,200.6,335.3,200.6z"/>
		<ellipse class="st0" cx="355" cy="156.7" rx="22.9" ry="21.9"/>
	</g>
	<path class="st0" d="M248.1,308.4l16.2,53.6c0.8,3.2,2.5,3.9,4.7,3.9h41.5c3.2,0,3.4-0.9,2.9-3.1l-68.5-228.4
		c-0.1-0.4-0.5-0.7-1.1-0.7l-57.4-0.2c-2.3,0-2.3,1.2-2.1,3.4c0.7,7.9,0.3,12.4-1.4,18.6L122.4,363c-0.6,2-0.5,2.9,2.1,3l39.1,0
		c4.1-0.1,4.4-1.3,5.1-3.3l13.6-54.2H248.1z M239.7,266.7h-47.5l23-93.2L239.7,266.7z"/>
</g>
</svg>
