<?xml version="1.0" encoding="utf-8"?>
<!-- Generator: Adobe Illustrator 22.0.1, SVG Export Plug-In . SVG Version: 6.00 Build 0)  -->
<svg version="1.1" id="Layer_1" xmlns="http://www.w3.org/2000/svg" xmlns:xlink="http://www.w3.org/1999/xlink" x="0px" y="0px"
	 viewBox="0 0 643 643" style="enable-background:new 0 0 643 643;" xml:space="preserve">
<style type="text/css">
	.st0{fill:#0868AC;}
</style>
<path class="st0" d="M213.2,73.4c-39.5,56.8-37.3,132.9-6.5,193c5.2,10.1,11,19.8,17.5,29.2c5.9,8.5,12.5,18.6,20.3,25.4
	c2.8,3.1,5.8,6.2,8.9,9.2c0.8,0.8,1.6,1.5,2.3,2.3c2.9,2.9,5.9,5.7,9.1,8.4c0.1,0.1,0.2,0.2,0.4,0.3c0,0,0.1,0,0.1,0.1
	c3.4,3,7,5.9,10.6,8.7c0.8,0.6,1.6,1.2,2.4,1.9c3.6,2.8,7.3,5.5,11.1,8.1c0.1,0.1,0.2,0.2,0.3,0.2c1.7,1.2,3.4,2.2,5.1,3.3
	c0.8,0.5,1.6,1.1,2.4,1.6c2.7,1.7,5.4,3.4,8.2,5c0.4,0.2,0.8,0.4,1.2,0.7c2.4,1.4,4.8,2.7,7.2,4c0.9,0.5,1.7,0.9,2.6,1.3
	c1.7,0.9,3.4,1.8,5.1,2.6c0.3,0.1,0.5,0.2,0.8,0.4c3.5,1.7,7,3.4,10.6,4.9c0.8,0.3,1.6,0.6,2.3,1c2.9,1.2,5.8,2.4,8.7,3.5
	c1.2,0.5,2.5,0.9,3.7,1.4c2.6,1,5.3,1.9,8,2.8c1.2,0.4,2.4,0.8,3.6,1.2c3.8,1.2,7.5,2.7,11.5,3.3C574.1,430.9,621.2,274,621.2,274
	c-42.4,61.1-124.6,90.3-212.3,67.5c-5-1.3-10.1-2.8-15-4.5c-3.9-1.3-7.9-2.7-11.7-4.1c-2.9-1.1-5.8-2.3-8.7-3.5
	c-0.8-0.3-1.6-0.6-2.3-1c-3.6-1.6-7.1-3.2-10.6-4.9c-1.8-0.9-3.6-1.8-5.3-2.7l-3.1-1.6c-2.3-1.2-4.5-2.5-6.7-3.8
	c-0.5-0.3-1.1-0.6-1.6-0.9c-2.8-1.6-5.5-3.3-8.2-5c-0.8-0.5-1.6-1.1-2.5-1.6c-1.8-1.2-3.5-2.3-5.3-3.5c-3.7-2.6-7.4-5.3-11-8.1
	c-0.8-0.7-1.7-1.3-2.5-2c-38.4-30.3-68.8-71.7-83.3-118.7c-15.2-48.7-11.9-103.4,14.4-147.7"/>
<g>
	<path class="st0" d="M48,146.3C-9.2,228.6-2.1,335.6,41.6,423c1,2.1,2.1,4.2,3.2,6.2c0.7,1.3,1.3,2.7,2,3.9
		c0.4,0.8,0.9,1.5,1.3,2.3c0.7,1.4,1.5,2.7,2.3,4.1c1.4,2.4,2.7,4.8,4.2,7.2c0.8,1.3,1.6,2.6,2.4,3.9c1.6,2.5,3.2,5.1,4.8,7.6
		c0.7,1.1,1.4,2.1,2.1,3.2c2.3,3.4,4.6,6.8,7,10.1l0.2,0.3c0.4,0.5,0.8,1.1,1.2,1.6c2.1,2.9,4.2,5.7,6.4,8.5c0.8,1,1.6,2,2.4,3.1
		c2.7,3.4,5.4,6.7,8.2,10c2.7,3.2,5.5,6.4,8.4,9.6c0.1,0.1,0.2,0.2,0.3,0.4c5.7,6.2,11.6,12.2,17.7,18.1c0.9,0.9,1.8,1.8,2.7,2.6
		c3,2.9,6.1,5.7,9.3,8.5c0.5,0.5,1.1,0.9,1.6,1.4c2.7,2.4,5.5,4.7,8.3,7c1.1,0.9,2.3,1.8,3.4,2.7c2.3,1.8,4.6,3.6,6.9,5.4l3.7,2.8
		c2.6,1.9,5.2,3.8,7.8,5.6c1,0.7,1.9,1.4,2.8,2c0.3,0.2,0.5,0.4,0.8,0.6c2.5,1.7,5,3.4,7.6,5c1.1,0.7,2.2,1.5,3.3,2.2
		c3.9,2.5,7.8,4.9,11.8,7.2c1.1,0.6,2.2,1.2,3.3,1.8c2.9,1.7,5.9,3.4,8.9,5c1.6,0.9,3.3,1.7,4.9,2.5c2.1,1.1,4.2,2.2,6.4,3.3
		c0.5,0.2,1,0.5,1.5,0.7c0.9,0.4,1.7,0.8,2.6,1.3c4,1.9,8.1,3.8,12.2,5.6c3.9,1.7,7.8,3.3,11.7,4.9c0.9,0.4,1.9,0.8,2.9,1.1
		c4.1,1.6,8.3,3.1,12.5,4.6c4.1,1.4,8.2,2.7,12.4,4c1,0.3,2,0.6,3,0.9c4.2,1.3,8.4,2.8,12.8,3.6C557.6,665.9,638,449.1,638,449.1
		c-67.5,88-187.4,111.2-301,85.3c-4.3-1-8.5-2.3-12.7-3.6c-5.2-1.5-10.3-3.2-15.4-4.9l-1.7-0.6c-3.6-1.3-7.2-2.6-10.8-4
		c-1-0.4-2-0.8-3-1.2c-3.9-1.5-7.8-3.1-11.6-4.8c-0.8-0.3-1.5-0.7-2.3-1c-4.2-1.9-8.4-3.9-12.6-5.9c-2.5-1.2-5.1-2.6-7.6-3.9
		c-1.7-0.9-3.4-1.7-5.1-2.7c-3.1-1.6-6.1-3.3-9.1-5.1c-1-0.6-2-1.1-3.1-1.7c-4-2.4-7.9-4.8-11.8-7.3c-1.1-0.7-2.1-1.4-3.2-2.1
		c-2.8-1.8-5.6-3.7-8.4-5.6c-0.9-0.6-1.8-1.3-2.7-1.9c-2.7-1.9-5.3-3.8-8-5.8c-1.2-0.9-2.4-1.8-3.5-2.7c-3.5-2.7-7-5.4-10.4-8.2
		c-3-2.5-6-5-8.9-7.5l-1-0.8c-3.2-2.8-6.3-5.7-9.4-8.5c-0.9-0.9-1.8-1.7-2.7-2.5c-2.3-2.2-4.5-4.4-6.8-6.6c-0.9-0.9-1.8-1.8-2.7-2.6
		c-2.8-2.9-5.6-5.8-8.3-8.8l-0.4-0.4c-2.9-3.1-5.7-6.3-8.4-9.6c-0.7-0.9-1.5-1.7-2.2-2.6c-2.1-2.5-4.1-5-6-7.5
		c-0.7-0.9-1.5-1.8-2.2-2.8c-2.4-3.1-4.7-6.2-7-9.3c-63.1-86-85.7-204.6-35.3-302.1"/>
	<path class="st0" d="M375.1,25.2c-24.4,35.9-26.8,80.5-9.9,120.2c17.9,42.1,54.4,75.1,97.1,90.8c1.8,0.7,3.5,1.2,5.3,1.8
		c0.8,0.2,1.6,0.5,2.3,0.7c2.5,0.8,5,1.7,7.6,2.2c118,22.8,150-60.6,158.5-72.8c-28,40.4-75.2,50.1-133,36c-4.7-1.2-9.4-2.7-14-4.3
		c-5.7-2-11.2-4.3-16.6-6.9c-10.3-4.9-20-10.9-29.1-17.8C391.7,135.9,359.6,61,393.3,0"/>
</g>
</svg>
