<?xml version="1.0" encoding="utf-8"?>
<!-- Generator: Adobe Illustrator 22.0.1, SVG Export Plug-In . SVG Version: 6.00 Build 0)  -->
<svg version="1.1" id="Layer_1" xmlns="http://www.w3.org/2000/svg" xmlns:xlink="http://www.w3.org/1999/xlink" x="0px" y="0px"
	 viewBox="0 0 720 720" style="enable-background:new 0 0 720 720;" xml:space="preserve">
<style type="text/css">
	.st0{fill:#F35045;}
</style>
<g>
	<path class="st0" d="M451.3,585c5.6,8.1,9.1,7.5,13.4,5.6c4.4-1.9,229.4-77.8,236.3-80.3c6.9-2.5,4.7-4.7,2.5-8.1
		c-2.2-3.4-77.2-105.3-80.9-111.2c-3.7-5.9-5.6-4.7-11.6-2.8l-238.5,62.1C372.4,450.2,445.6,576.9,451.3,585z M720,481.3V362
		c-26.8,7.1-60.8,16.2-74.2,19.8C666,408.8,697.6,451.1,720,481.3z M645.6,234.9c-3.7,0.8-85.1,15.5-90.1,16.2
		c-5,0.7-3.3,3.5-1.3,6.4l71.6,98.3c0,0,87.6-21.7,92.9-22.9c0.4-0.1,0.9-0.2,1.3-0.3v-13c-15.9-20.2-59.3-75.1-63-80.3
		C652.5,233.1,649.3,234.1,645.6,234.9L645.6,234.9z"/>
	<path class="st0" d="M133.5,80.5c17.6-0.8,19.2,3.2,27,14.7L355,420.5l244.6-58.6c-13.6-19.2-75.1-106.4-81-114.8
		c-6.7-9.4,0.2-13.7,11-15.5c10.9-1.8,104.5-17.5,112.5-18.7c8-1.2,14.4-4,27.4,11.7c6.7,8,29.3,36.2,50.5,62.6V135
		c0-37.2-13.2-69-39.6-95.4C654,13.2,622.2,0,585,0H135C97.8,0,66,13.2,39.6,39.6C24.5,54.8,13.7,71.7,7.2,90.4
		C51.3,86.8,121.1,81.1,133.5,80.5L133.5,80.5z"/>
	<path class="st0" d="M473.3,628.8c-20.6,6.2-29.9,9.4-43.3-9.4c-10.1-14-64.5-112.1-91.2-160.4c-50.5,13.2-142.9,37.3-169.6,43.7
		c-26,6.2-37.1-9.3-41.4-19C124.9,477,48.6,312.6,0,207.1V585c0,37.2,13.2,69,39.6,95.4C66,706.8,97.8,720,135,720h450
		c37.2,0,69-13.2,95.4-39.6C706.8,654,720,622.2,720,585v-44.4C664.8,560.8,487.2,624.6,473.3,628.8z"/>
	<path class="st0" d="M169.9,464.9c7.3-1.7,144.3-34.5,147.2-35.1c2.9-0.6,4.8-2.3,1.7-7.7c-3.1-5.4-182.6-315.3-182.6-315.3
		c-1.7-2.8-1.2-3.8-5.7-3.6c-4,0.2-105.6,9.3-129.1,11.2c-0.7,5-1.1,10-1.3,15C24,178.3,161,460.9,161.8,463.2
		C162.6,465.7,162.6,466.5,169.9,464.9L169.9,464.9z"/>
</g>
</svg>
