<svg xmlns="http://www.w3.org/2000/svg" viewBox="0 0 430.96 295.02" width="200" height="139"><defs><style>.a{fill:#fb503b;}</style></defs><title>laravel-l-slant</title><path class="a" d="M442.9,230.3c-2.85-3.21-42.3-52.59-49.25-61s-10.34-6.86-14.62-6.24-54.2,9-60,10-9.45,3.3-5.88,8.29c3.17,4.44,36,51,43.21,61.21L225.91,273.83,122.15,100.37c-4.13-6.12-5-8.26-14.39-7.84s-81.39,6.41-86.52,6.84-10.76,2.71-5.63,14.82S102.5,302.47,104.78,307.6,113,321,126.86,317.71c14.21-3.42,63.5-16.28,90.43-23.33,14.23,25.77,43.25,78,48.62,85.54,7.17,10,12.1,8.35,23.1,5,8.59-2.6,134.4-47.85,140.07-50.18s9.17-4,5.33-9.67c-2.82-4.17-36-48.63-53.39-71.89,11.91-3.17,54.24-14.44,58.76-15.66C445,236.1,445.75,233.51,442.9,230.3ZM205.73,278.8c-1.56.33-74.63,17.82-78.53,18.71s-3.9.45-4.34-.89S36,117.06,34.77,114.83s-1.14-4,0-4,69-6.07,71.41-6.19,2.15.38,3,1.9c0,0,95.73,165.24,97.4,168.13S207.29,278.46,205.73,278.8Zm206,38.62c1.17,1.83,2.33,3-1.33,4.33s-123.67,41.83-126,42.83-4.17,1.33-7.17-3-42-71.9-42-71.9l127.21-33.1c3.17-1,4.17-1.67,6.17,1.5S410.58,315.58,411.75,317.41Zm8.16-90.32c-2.85.62-49.56,12.21-49.56,12.21l-38.2-52.41c-1.07-1.52-2-3,.71-3.39s46.08-8.2,48-8.65,3.66-1,6.06,2.32,35.44,45.1,36.69,46.71S422.75,226.47,419.9,227.1Z" transform="translate(-13.59 -92.48)"/></svg>