<?xml version="1.0" encoding="utf-8"?>
<!-- Generator: Adobe Illustrator 22.0.1, SVG Export Plug-In . SVG Version: 6.00 Build 0)  -->
<svg version="1.1" id="Layer_1" xmlns="http://www.w3.org/2000/svg" xmlns:xlink="http://www.w3.org/1999/xlink" x="0px" y="0px"
	 viewBox="0 0 835.2 835.2" style="enable-background:new 0 0 835.2 835.2;" xml:space="preserve">
<style type="text/css">
	.st0{fill:#00678C;}
</style>
<path class="st0" d="M763.3,637.9c-44.6-1.1-79.3,3.4-108.3,15.6c-8.4,3.4-21.8,3.4-22.9,14c4.5,4.4,5,11.7,8.9,17.9
	c6.7,11.2,18.4,26.2,29,34c11.7,8.9,23.5,17.9,35.7,25.7c21.8,13.4,46.3,21.2,67.5,34.6c12.3,7.8,24.6,17.9,36.8,26.2
	c6.1,4.5,10,11.7,17.9,14.5v-1.7c-3.9-5-5-12.3-8.9-17.9c-5.6-5.6-11.2-10.6-16.8-16.2c-16.2-21.8-36.3-40.8-58.1-56.4
	c-17.9-12.3-56.9-29-64.2-49.7l-1.1-1.1c12.3-1.1,26.8-5.6,38.5-8.9c19-5,36.3-3.9,55.8-8.9c8.9-2.2,17.9-5,26.8-7.8v-5
	c-10-10-17.3-23.4-27.9-32.9c-28.5-24.6-59.7-48.6-92.1-68.7c-17.3-11.2-39.6-18.4-58-27.9c-6.7-3.4-17.9-5-21.8-10.6
	c-10.1-12.3-15.6-28.5-22.9-43c-16.2-30.7-31.8-64.7-45.8-97.1c-10-21.8-16.2-43.5-28.5-63.6c-57.5-94.9-120-152.4-216.1-208.8
	c-20.6-11.7-45.2-16.8-71.5-22.9c-14-0.6-27.9-1.7-41.9-2.2c-8.9-3.9-17.9-14.5-25.7-19.5C116.2,29.4,34.2-14.1,10.7,43.4
	c-15.1,36.3,22.3,72,35.2,90.4c9.5,12.8,21.8,27.4,28.5,41.9c3.9,9.5,5,19.5,8.9,29.6c8.9,24.6,17.3,51.9,29,74.8
	c6.1,11.7,12.8,24,20.6,34.6c4.5,6.1,12.3,8.9,14,19c-7.8,11.2-8.4,27.9-12.8,41.9c-20.1,63.1-12.3,141.2,16.2,187.6
	c8.9,14,30.2,44.7,58.6,32.9c25.1-10,19.5-41.9,26.8-69.8c1.7-6.7,0.6-11.2,3.9-15.6v1.1c7.8,15.6,15.6,30.7,22.9,46.3
	c17.3,27.4,47.5,55.8,72.6,74.8c13.4,10,24,27.4,40.7,33.5v-1.7h-1.1c-3.4-5-8.4-7.2-12.8-11.2c-10-10-21.2-22.3-29-33.5
	c-23.4-31.3-44.1-65.9-62.5-101.6c-8.9-17.3-16.8-36.3-24-53.6c-3.4-6.7-3.4-16.8-8.9-20.1c-8.4,12.3-20.6,22.9-26.8,38
	c-10.6,24-11.7,53.6-15.6,84.3c-2.3,0.6-1.1,0-2.3,1.1c-17.8-4.5-24-22.9-30.7-38.5c-16.7-39.6-19.5-103.3-5-149.1
	c3.9-11.7,20.7-48.6,14-59.7c-3.4-10.6-14.5-16.7-20.7-25.1c-7.3-10.6-15.1-24-20.1-35.7c-13.4-31.3-20.1-65.9-34.6-97.1
	c-6.7-14.5-18.4-29.6-27.9-43C57.1,104.8,45.4,94.2,37,76.3c-2.8-6.1-6.7-16.2-2.2-22.9c1.1-4.5,3.4-6.1,7.8-7.3
	c7.3-6.1,27.9,1.7,35.2,5c20.6,8.4,37.9,16.2,55.3,27.9c7.8,5.6,16.2,16.2,26.2,19H171c17.9,3.9,37.9,1.1,54.7,6.1
	c29.6,9.5,56.4,23.4,80.4,38.5c73.1,46.3,133.4,112.2,174.2,190.9c6.7,12.8,9.5,24.6,15.6,38c11.7,27.4,26.2,55.3,37.9,82.1
	c11.7,26.2,22.9,53,39.6,74.8c8.4,11.7,41.9,17.9,56.9,24c11.2,5,28.5,9.5,38.5,15.6c19,11.7,37.9,25.1,55.8,38
	C733.7,612.8,761.6,626.7,763.3,637.9L763.3,637.9z M193.8,152.8c-9.5,0-16.2,1.1-22.9,2.8v1.1h1.1c4.5,8.9,12.3,15.1,17.9,22.9
	c4.5,8.9,8.4,17.9,12.8,26.8l1.1-1.1c7.8-5.6,11.7-14.5,11.7-27.9c-3.4-3.9-3.9-7.8-6.7-11.7C205.6,160,198.3,157.2,193.8,152.8
	L193.8,152.8z"/>
</svg>
