<?xml version="1.0" encoding="utf-8"?>
<!-- Generator: Adobe Illustrator 22.0.1, SVG Export Plug-In . SVG Version: 6.00 Build 0)  -->
<svg version="1.1" id="Layer_1" xmlns="http://www.w3.org/2000/svg" xmlns:xlink="http://www.w3.org/1999/xlink" x="0px" y="0px"
	 viewBox="0 0 500 500" style="enable-background:new 0 0 500 500;" xml:space="preserve">
<style type="text/css">
	.st0{fill:#87BCF6;}
</style>
<g id="Layer_x0020_1">
	<path class="st0" d="M0,1.5v496.9h500V1.5H0z M458.1,456.8H41.9V43.2h416.2V456.8z"/>
	<path class="st0" d="M370.7,196.9c-37-18.7-100.8-9.6-100.8,39.1c0,36.3,25.1,50.6,55.8,62.5c43.6,17,1.2,49.2-52,15.9
		c0,0-1.9-0.9-2.8,0c-0.9,0.9-0.9,1.9-0.9,2.8c0,0.9,0,35,0,35c18.6,9.5,32.5,14.4,54,14.2c69.3-0.7,79.3-67.1,42.4-92.6
		c-6.7-4.7-24.6-13.9-30.2-16.1c-29.3-11.2-26.8-27.1-17.5-35.1c10.3-8.9,38.8,4.6,50.8,12.1c7.3,4.5,8.5-1.1,8.4-6l-0.1-23.2
		C377.7,199.9,375.8,199.5,370.7,196.9z"/>
	<path class="st0" d="M156.7,254.9v-85.1c0-0.4,1.5-1.9,1.9-1.9c36.1-1.8,56.6,5.2,58.4,43.7c2.1,44.2-35,45.1-60.3,45.1V254.9z
		 M113.2,136.7v228.8h43.5v-73.7c53.4,3.8,101.6-15.3,101.6-77.1c0-24.9-7.8-50-26.1-65.1C206.5,128.3,146.5,133,113.2,136.7z"/>
</g>
</svg>
