<?xml version="1.0" encoding="utf-8"?>
<!-- Generator: Adobe Illustrator 22.0.1, SVG Export Plug-In . SVG Version: 6.00 Build 0)  -->
<svg version="1.1" id="Layer_1" xmlns="http://www.w3.org/2000/svg" xmlns:xlink="http://www.w3.org/1999/xlink" x="0px" y="0px"
	 viewBox="0 0 720 720" style="enable-background:new 0 0 720 720;" xml:space="preserve">
<style type="text/css">
	.st0{fill:#8993BE;}
</style>
<path class="st0" d="M212.1,304.4H180l-12.3,74h0h29.6c22.2-2.5,41.9-9.9,44.4-51.8C241.6,311.8,229.3,304.4,212.1,304.4z"/>
<g>
	<path class="st0" d="M542.5,304.4h-32.1l-12.3,74h0h29.6c22.2-2.5,41.9-9.9,44.4-51.8C572.1,311.8,559.7,304.4,542.5,304.4z"/>
	<path class="st0" d="M360,168.8c-198.8,0-360,83.9-360,187.4s161.2,187.4,360,187.4s360-83.9,360-187.4S558.8,168.8,360,168.8z
		 M202.2,415.4h-44.4l-9.9,51.8h-46.9l39.5-199.7h91.2c39.5,2.5,59.2,22.2,59.2,56.7C291,383.3,244.1,417.8,202.2,415.4z
		 M387.8,304.4h-37l-22.2,111h-46.9l39.5-199.7h46.9l-9.9,51.8h44.4c39.5,2.5,54.2,22.2,49.3,46.9l-17.3,101.1h-49.3l17.3-91.2
		C405.1,311.8,405.1,304.4,387.8,304.4z M532.6,415.4h-44.4l-9.9,51.8h-46.8L471,267.4h91.2c39.5,2.5,59.2,22.2,59.2,56.7
		C621.4,383.3,574.5,417.8,532.6,415.4z"/>
</g>
</svg>
