<?xml version="1.0" encoding="utf-8"?>
<!-- Generator: Adobe Illustrator 22.0.1, SVG Export Plug-In . SVG Version: 6.00 Build 0)  -->
<svg version="1.1" id="Layer_1" xmlns="http://www.w3.org/2000/svg" xmlns:xlink="http://www.w3.org/1999/xlink" x="0px" y="0px"
	 viewBox="0 0 512 492" style="enable-background:new 0 0 512 492;" xml:space="preserve">
<style type="text/css">
	.st0{fill:#764ABC;}
</style>
<g>
	<path class="st0" d="M353.3,340.6c18.8-2,32.6-17.8,32-37.1c-0.5-19.3-16.8-34.6-36.1-34.6h-1.5c-19.8,0.5-35.1,17.3-34.6,37.1
		c0.5,9.7,4.6,17.8,10.2,23.9c-21.9,42.7-54.9,74.3-105.3,100.7c-33.6,17.8-68.7,24.4-103.8,19.8c-29-4.1-51.4-16.8-65.6-37.6
		c-20.3-31.5-22.4-65.6-5.1-99.2c12.2-24.4,31.5-42.2,43.8-51.4c-2.5-8.1-6.6-22.4-8.1-32.6c-93.6,66.6-83.9,157.7-55.5,200.9
		c20.9,32,64.1,51.9,111.4,51.9c12.7,0,25.4-1.5,38.7-4.6C255.6,461.7,318.2,413.4,353.3,340.6z"/>
	<path class="st0" d="M466.2,261.3c-48.8-57-120.6-88.5-202.5-88.5h-10.2c-5.6-11.7-17.8-19.3-31.5-19.3h-1.5
		c-19.8,0.5-35.1,17.3-34.6,37.1c0.5,19.3,16.8,34.6,36.1,34.6h1.5c14.2-0.5,26.5-9.7,31.5-21.9h10.7c48.8,0,95.1,14.2,136.8,41.7
		c32,21.4,54.9,48.8,68.2,81.9c10.7,27,10.2,53.4-1.5,75.8c-17.8,34.1-47.8,52.9-88,52.9c-25.4,0-49.9-7.6-63.1-13.2
		c-7.1,6.6-19.8,16.8-29,22.9c27.5,12.7,56,19.8,82.9,19.8c61.6,0,107.3-34.1,124.6-68.2C515.5,379.8,514,315.7,466.2,261.3z"/>
	<path class="st0" d="M140.1,351.8c0.5,19.3,16.8,34.6,36.1,34.6h1.5c19.8-0.5,35.1-17.3,34.6-37.1c-0.5-19.3-16.8-34.6-36.1-34.6
		h-1.5c-1.5,0-3.1,0-4.6,0.5c-26.5-43.8-37.1-91.1-33.6-142.4c2.5-38.7,15.3-71.7,37.6-99.2c18.8-23.9,54.4-35.1,78.9-36.1
		c68.2-1.5,96.7,83.4,98.7,117.5c8.1,2,22.4,6.6,32,9.7C376.2,60.8,312.1,6.9,250.5,6.9c-57.5,0-110.9,41.7-132.3,103.3
		c-29.5,81.9-10.2,161.3,25.4,223.3C141.6,337.6,139.6,344.7,140.1,351.8z"/>
</g>
</svg>
