<?xml version="1.0" encoding="utf-8"?>
<!-- Generator: Adobe Illustrator 22.0.1, SVG Export Plug-In . SVG Version: 6.00 Build 0)  -->
<svg version="1.1" id="Layer_1" xmlns="http://www.w3.org/2000/svg" xmlns:xlink="http://www.w3.org/1999/xlink" x="0px" y="0px"
	 viewBox="0 0 527.8 527.8" style="enable-background:new 0 0 527.8 527.8;" xml:space="preserve">
<style type="text/css">
	.st0{fill:#8ED6FB;}
	.st1{fill:#1C78C0;}
</style>
<title>icon-square-small</title>
<path class="st0" d="M482,402.4L273.1,520.7v-92L403.3,357L482,402.4z M496.3,389.5V142.3l-76.4,44.1v159L496.3,389.5z M45.8,402.4
	l208.9,118.2v-92L124.5,357L45.8,402.4z M31.5,389.5V142.3l76.4,44.1v159C107.9,345.4,31.5,389.5,31.5,389.5z M40.4,126.3L254.7,5.1
	v89l-137.3,75.5l-1.1,0.6L40.4,126.3L40.4,126.3z M487.3,126.3L273.1,5.1v89l137.2,75.6l1.1,0.6L487.3,126.3L487.3,126.3z"/>
<path class="st1" d="M254.7,411.7L126.3,341V201.1l128.4,74.1V411.7z M273.1,411.7l128.4-70.6v-140l-128.4,74.1V411.7z M134.9,184.9
	l129-70.9l128.9,70.9l-128.9,74.4L134.9,184.9z"/>
</svg>
