<?xml version="1.0" encoding="utf-8"?>
<!-- Generator: Adobe Illustrator 22.0.1, SVG Export Plug-In . SVG Version: 6.00 Build 0)  -->
<svg version="1.1" id="Layer_1" xmlns="http://www.w3.org/2000/svg" xmlns:xlink="http://www.w3.org/1999/xlink" x="0px" y="0px"
	 viewBox="0 0 378 379" style="enable-background:new 0 0 378 379;" xml:space="preserve">
<style type="text/css">
	.st0{fill:#21759B;}
</style>
<g>
	<path class="st0" d="M348.3,105.8c0.6,5.1,0.9,10.3,0.7,15.7c0,18-3,39-13,65l-54.4,157.3c52.3-31.5,87.4-88.9,87.4-154.3
		C369,159.3,361.5,130.8,348.3,105.8z"/>
	<path class="st0" d="M98,88.5c10-1,11,14,1,15c0,0-9,0-20,1l65,196l40-119l-28-77c-10-1-19-1-19-1c-10-1-9-16,1-15c33,2,63,3,96,0
		c10-1,11,14,1,15c0,0-10,0-21,1l65,194c13-45,32-92,32-122c0-41-30-58-32-88c-1-12.6,10.3-32.7,31-32.1C278,27.3,235.6,9.5,189,9.5
		c-62.4,0-117.5,31.9-149.8,80.3C51.3,91.7,74.3,90.1,98,88.5z"/>
	<path class="st0" d="M24.5,116.5c-9.9,22.3-15.5,47-15.5,73c0,70.7,40.9,131.9,100.3,161.4L24.5,116.5z"/>
	<path class="st0" d="M193,205.5l-53.6,157c15.8,4.5,32.4,7,49.6,7c21.1,0,41.3-3.6,60.1-10.3L193,205.5z"/>
</g>
</svg>
