<?xml version="1.0" encoding="utf-8"?>
<!-- Generator: Adobe Illustrator 22.0.1, SVG Export Plug-In . SVG Version: 6.00 Build 0)  -->
<svg version="1.1" id="Layer_1" xmlns="http://www.w3.org/2000/svg" xmlns:xlink="http://www.w3.org/1999/xlink" x="0px" y="0px"
	 viewBox="0 0 500 500" style="enable-background:new 0 0 500 500;" xml:space="preserve">
<style type="text/css">
	.st0{fill:#FF2BC2;}
	.st1{fill:#FF3BC1;}
	.st2{fill:#FE31C0;}
</style>
<g id="Layer_x0020_1">
	<path class="st0" d="M0,1.5v496.9h500V1.5H0z M458.1,456.8H41.9V43.2h416.2V456.8z"/>
	<path class="st1" d="M96.7,138.5c1.6,3.6,4.1,8,5,9.8c2.5,5,5,9.7,7.5,14.7l40.5,80.7c1.2,2.4,3.4,5,2.3,7.6L95.1,359.9
		c-1.4,2.7-4.4,5.8,1.1,5.8h33.7c4.8,0,4.8-2.5,7.9-9l38.6-80.9c2.6,2.3,34.2,70.8,41.8,86.4c1.3,2.7,1.6,3.5,5.5,3.5
		c5.5,0,35.5,0.6,38.3-0.6c0.6-3.2-4.8-11.9-6.5-15l-15-28.8c-11.9-22.8-25.4-50.5-37.4-72.2c-2.5-4.4-1.5-4.2,4-14.4
		c2.7-5,4.9-9.5,7.6-14.5c2.5-4.6,4.9-9.4,7.4-14.2l22.6-43.4c2.1-4,12.1-21.7,13.8-27.6c0.5-2-2.7-1.8-5-1.8l-29.8,0
		c-0.2,0-0.3,0-0.5,0c-3.3,0-3.7,0.6-4.9,3L189,198.8c-1.4,3.2-9.2,21.4-10.6,22.6c-3.1-7.6-6.8-14.9-10.1-22.5l-21.4-45
		c-1.9-3.7-3.4-7.4-5.3-11.1c-1-2-1.9-3.7-2.7-5.7c-1.2-2.7-1.1-3.7-4.7-3.7l-34.1,0C94.9,133.4,94.4,133.5,96.7,138.5z"/>
	<path class="st2" d="M309,282.5c0-14.1,1.5-27.5,9.3-39.3c1.6-2.5,4.4-6.2,6.3-7.9c9.6-8.7,25.7-15.2,42.9-9.6l0.1,107
		C334,342.3,309,321.6,309,282.5z M367.6,191.6l-13.7-0.3c-26.3,0-48.2,12.7-60.2,25.2c-12.3,12.9-23.8,36.1-23.8,61.7
		c0,28,5.2,48.5,20.3,66.2c10.7,12.6,31.6,24.2,56.8,24.2c13.1,0,22.7-0.7,35.6-4.2c6.3-1.7,20.5-6.3,24.2-9.5
		c0.5-2.4-0.5-9.3-0.6-12.4c-0.5-12.7-0.2-29.7-0.1-42.7l0-162.3c0-3.2,0.2-4.2-3.2-4.2h-32.1c-4.5,0-3.2,2.7-3.2,12.1V191.6z"/>
</g>
</svg>
