<?xml version="1.0" encoding="utf-8"?>
<!-- Generator: Adobe Illustrator 22.0.1, SVG Export Plug-In . SVG Version: 6.00 Build 0)  -->
<svg version="1.1" id="Layer_1" xmlns="http://www.w3.org/2000/svg" xmlns:xlink="http://www.w3.org/1999/xlink" x="0px" y="0px"
	 viewBox="0 0 618 618" style="enable-background:new 0 0 618 618;" xml:space="preserve">
<style type="text/css">
	.st0{display:none;}
	.st1{display:inline;fill:#FF0000;}
	.st2{fill:#563D7C;}
</style>
<g id="Layer_2_1_" class="st0">
	<rect x="3" y="3" class="st1" width="614" height="614"/>
</g>
<g id="Layer_1_1_">
	<g>
		<path class="st2" d="M371.3,272.7c10-8.6,15-20.8,15-36.8c0-18-4.5-30.7-13.5-38s-22-11-39-11h-102v98.6h102
			C348.8,285.5,361.3,281.3,371.3,272.7z"/>
		<path class="st2" d="M386.5,344.6c-10.6-9.6-25.2-14.2-44.2-14.2H231.8V442h110.5c19,0,33.8-4.9,44.2-14.8
			c10.5-9.8,15.8-23.8,15.8-41.8C402.3,367.7,397.1,354.2,386.5,344.6z"/>
		<path class="st2" d="M513,3H105C48.9,3,3,48.9,3,105v408c0,56.1,45.9,102,102,102h408c56.1,0,102-45.9,102-102V105
			C615,48.9,569.1,3,513,3z M457.3,432.7c-5,12.2-12.8,22.7-23.5,31.5s-24.3,15.8-41,21s-36.5,7.8-59.5,7.8h-164V136h173.5
			c32,0,57.7,7.3,77,22s29,36.8,29,66.5c0,18-4.4,33.4-13.2,46.2c-8.8,12.8-21.4,22.8-37.8,29.8v1c22,4.7,38.7,15.1,50,31.2
			c11.3,16.2,17,36.4,17,60.8C464.8,407.5,462.3,420.6,457.3,432.7z"/>
	</g>
</g>
</svg>
