<?xml version="1.0" encoding="utf-8"?>
<!-- Generator: Adobe Illustrator 22.0.1, SVG Export Plug-In . SVG Version: 6.00 Build 0)  -->
<svg version="1.1"
	 id="svg2" xmlns:cc="http://creativecommons.org/ns#" xmlns:dc="http://purl.org/dc/elements/1.1/" xmlns:inkscape="http://www.inkscape.org/namespaces/inkscape" xmlns:rdf="http://www.w3.org/1999/02/22-rdf-syntax-ns#" xmlns:svg="http://www.w3.org/2000/svg"
	 xmlns="http://www.w3.org/2000/svg" xmlns:xlink="http://www.w3.org/1999/xlink" x="0px" y="0px" viewBox="0 0 148 148"
	 style="enable-background:new 0 0 148 148;" xml:space="preserve">
<style type="text/css">
	.st0{fill:#8A4182;}
</style>
<g id="g10" transform="matrix(1.25,0,0,-1.25,0,187.5)">
	<g id="g12" transform="scale(0.1,0.1)">
		<g id="g14">
			<g>
				<g id="g16">
					<path id="path36" inkscape:connector-curvature="0" class="st0" d="M546.6,1008.7h90.8l22.5,31v243.1H524.1v-243.1
						L546.6,1008.7"/>
					<path id="path38" inkscape:connector-curvature="0" class="st0" d="M488.1,900.3l28,86.3l-22.6,31l-231.2,75.1l-42-129.2
						l231.3-75.1L488.1,900.3"/>
					<path id="path40" inkscape:connector-curvature="0" class="st0" d="M573.1,811.1l-73.4,53.4l-36.5-11.9L320.3,655.9l109.9-79.8
						l142.9,196.7V811.1"/>
					<path id="path42" inkscape:connector-curvature="0" class="st0" d="M684.3,864.5l-73.4-53.3v-38.4l142.9-196.7l109.9,79.8
						L720.8,852.6L684.3,864.5"/>
					<path id="path44" inkscape:connector-curvature="0" class="st0" d="M667.8,986.6l28.1-86.3l36.5-11.8l231.1,75l-42,129.2
						l-231.2-75.1L667.8,986.6"/>
					<path id="path46" inkscape:connector-curvature="0" class="st0" d="M592,1493.9c-323,0-585.9-262.8-585.9-585.8
						c0-323.1,262.8-586,585.9-586c323,0,585.8,262.9,585.8,586C1177.9,1231.1,915,1493.9,592,1493.9L592,1493.9z M592,1375.3
						c258,0,467.2-209.1,467.2-467.2S850,440.8,592,440.8c-258.1,0-467.3,209.2-467.3,467.3C124.7,1166.1,333.9,1375.3,592,1375.3"
						/>
					<path id="path48" inkscape:connector-curvature="0" class="st0" d="M946.8,777.9L771,835l11.6,35.8l175.8-57.1L946.8,777.9"/>
					<path id="path50" inkscape:connector-curvature="0" class="st0" d="M722.8,1060.1l-30.5,22.1l108.6,149.5l30.5-22.1
						L722.8,1060.1"/>
					<path id="path52" inkscape:connector-curvature="0" class="st0" d="M463.3,1061.4l-108.6,149.5l30.5,22.1l108.6-149.5
						L463.3,1061.4"/>
					<path id="path54" inkscape:connector-curvature="0" class="st0" d="M236.4,780.1l-11.6,35.8L400.6,873l11.6-35.8L236.4,780.1"
						/>
					<path id="path56" inkscape:connector-curvature="0" class="st0" d="M572,534.6h37.6v184.8H572V534.6z"/>
				</g>
			</g>
		</g>
	</g>
</g>
</svg>
