<?xml version="1.0" encoding="utf-8"?>
<!-- Generator: Adobe Illustrator 17.1.0, SVG Export Plug-In . SVG Version: 6.00 Build 0)  -->
<!DOCTYPE svg PUBLIC "-//W3C//DTD SVG 1.1//EN" "http://www.w3.org/Graphics/SVG/1.1/DTD/svg11.dtd">
<svg version="1.1" id="Layer_1" xmlns="http://www.w3.org/2000/svg" xmlns:xlink="http://www.w3.org/1999/xlink" x="0px" y="0px"
	 viewBox="0 0 53.8 53.8" enable-background="new 0 0 53.8 53.8" xml:space="preserve">
<g id="uyietG.tif">
	<g>
		<path fill="#FDFEFE" d="M47.8,23.5c0.4,0.9,0.7,1.8,0.8,2.8c0.5,4-0.7,7.3-3.8,9.8c-2.4,1.9-5.1,2.5-8.1,2.1
			c-2.2-0.3-4-1.3-5.6-2.9c-1.3-1.2-2.5-2.5-3.7-3.8c-0.2-0.2-0.3-0.2-0.4,0c-1.3,1.4-2.7,2.7-4,4.1c-1.9,1.8-4.1,2.7-6.8,2.8
			c-2.1,0-4.1-0.5-5.9-1.6c-0.2-0.1-0.3-0.2-0.5-0.4c0,0,0,0,0,0c0,0-0.1,0-0.1-0.1c-0.8-0.7-1.5-1.4-2.1-2.2
			c-1.2-1.6-1.8-3.5-1.9-5.5c-0.3-5.1,3-8.7,6.2-10.1c1.8-0.8,3.6-0.9,5.5-0.7c2.3,0.3,4.2,1.3,5.8,2.9c1.3,1.3,2.5,2.5,3.8,3.8
			c0.1,0.1,0.2,0.1,0.4,0c1.3-1.3,2.6-2.7,4-4c1.4-1.4,3.1-2.3,5-2.7c1.9-0.4,3.8-0.3,5.7,0.4c2.6,0.9,4.4,2.7,5.7,5.1
			C47.7,23.4,47.7,23.5,47.8,23.5z M15.9,33.7c0.4,0,0.7,0,1.1-0.1c0.9-0.2,1.7-0.6,2.4-1.2c1.4-1.4,2.7-2.8,4.1-4.1
			c0.2-0.2,0.2-0.2,0-0.4c-1.2-1.2-2.4-2.4-3.6-3.6c-1.4-1.5-3.1-2-5.1-1.7c-2.4,0.3-4.4,2.7-4.7,4.9C9.9,30.9,12.7,33.8,15.9,33.7z
			 M44,28c0-0.4-0.1-0.9-0.1-1.3c-0.4-2.1-2.5-4.1-4.9-4.3c-1.8-0.1-3.3,0.3-4.5,1.6c-1.3,1.3-2.6,2.6-3.8,3.9
			c-0.2,0.2-0.2,0.2,0,0.4c1.2,1.2,2.5,2.4,3.7,3.6c1.1,1.2,2.5,1.8,4.1,1.8C41.5,33.6,44,31.1,44,28z"/>
		<path fill="#07787D" d="M9.6,36.3C9.6,36.3,9.6,36.3,9.6,36.3C9.6,36.3,9.6,36.4,9.6,36.3z"/>
		<g>
			<path fill="#06979C" d="M50.5,14.2c-1.3-2.3-2.9-4.4-4.8-6.3C43,5.2,40,3.1,36.5,1.8c-1.8-0.7-3.7-1.1-5.6-1.4
				c-0.7-0.1-1.5-0.2-2.3-0.2c0,0-0.1,0-0.1-0.1c-0.9,0-1.8,0-2.7,0c-0.2,0.1-0.4,0-0.6,0.1c-3.5,0.2-6.9,1-10,2.5
				c-3.1,1.5-5.8,3.6-8.1,6.1c-1.9,2.1-3.5,4.4-4.7,7c-1.3,2.9-2.1,5.9-2.2,9.1c0,0.1,0,0.2-0.1,0.2c0,1.2,0,2.4,0,3.6
				c0.1,0.2,0.1,0.5,0.1,0.7C0.7,35.3,3,40.5,7,44.8c2.2,2.4,4.6,4.3,7.4,5.8c2.4,1.3,5,2.2,7.7,2.6c1.4,0.2,2.9,0.4,4.4,0.4
				c0.1,0,0.2,0,0.3,0c-0.1-0.1-0.2-0.2-0.3-0.3c0.1,0.1,0.2,0.2,0.3,0.3c1.5,0,3-0.1,4.5-0.3c2.2-0.3,4.3-1,6.4-1.9
				c2.9-1.3,5.5-3.1,7.8-5.3c4-3.9,6.7-8.4,7.7-13.9c0.2-1,0.3-2,0.4-2.9c0.1-0.6,0.1-1.3,0.1-1.9C53.7,22.7,52.8,18.3,50.5,14.2z
				 M9.8,36.6L9.8,36.6L9.8,36.6z M9.9,36.7C9.9,36.7,9.9,36.7,9.9,36.7C9.9,36.7,9.9,36.7,9.9,36.7C9.9,36.7,9.9,36.7,9.9,36.7
				C9.9,36.7,9.9,36.7,9.9,36.7z M44.8,36.1c-2.4,1.9-5.1,2.5-8.1,2.1c-2.2-0.3-4-1.3-5.6-2.9c-1.3-1.2-2.5-2.5-3.7-3.8
				c-0.2-0.2-0.3-0.2-0.4,0c-1.3,1.4-2.7,2.7-4,4.1c-1.9,1.8-4.1,2.7-6.8,2.8c-2.1,0-4.1-0.5-5.9-1.6c-0.2-0.1-0.3-0.2-0.5-0.4
				c0,0,0,0,0,0c0,0,0,0,0,0c0,0,0,0,0,0c0,0-0.1,0-0.1-0.1c-0.8-0.7-1.5-1.4-2.1-2.2c-1.2-1.6-1.8-3.5-1.9-5.5
				c-0.3-5.1,3-8.7,6.2-10.1c1.8-0.8,3.6-0.9,5.5-0.7c2.3,0.3,4.2,1.3,5.8,2.9c1.3,1.3,2.5,2.5,3.8,3.8c0.1,0.1,0.2,0.1,0.4,0
				c1.3-1.3,2.6-2.7,4-4c1.4-1.4,3.1-2.3,5-2.7c1.9-0.4,3.8-0.3,5.7,0.4c2.6,0.9,4.4,2.7,5.7,5.1c0,0.1,0.1,0.1,0.1,0.2c0,0,0,0,0,0
				c0.4,0.9,0.7,1.8,0.8,2.8C49.1,30.3,47.9,33.6,44.8,36.1z M9.7,36.5C9.7,36.5,9.7,36.5,9.7,36.5C9.7,36.5,9.7,36.5,9.7,36.5z
				 M9.7,36.5C9.7,36.5,9.7,36.5,9.7,36.5C9.7,36.5,9.7,36.5,9.7,36.5z M9.7,36.4C9.7,36.4,9.7,36.4,9.7,36.4
				C9.7,36.4,9.7,36.4,9.7,36.4z"/>
			<path fill="#06979C" d="M19.9,24.2c-1.4-1.5-3.1-2-5.1-1.7c-2.4,0.3-4.4,2.7-4.7,4.9c-0.4,3.5,2.5,6.4,5.7,6.3
				c0.4,0,0.7,0,1.1-0.1c0.9-0.2,1.7-0.6,2.4-1.2c1.4-1.4,2.7-2.8,4.1-4.1c0.2-0.2,0.2-0.2,0-0.4C22.3,26.6,21.1,25.4,19.9,24.2z
				 M19,29.1c-1.8,0-3.5,0-5.3,0c-0.6,0-1-0.4-1-1c0-0.6,0.4-1,0.9-1.1c0.9,0,1.8,0,2.7,0c0.9,0,1.8,0,2.7,0c0.5,0,0.9,0.5,0.9,1
				C20,28.6,19.5,29.1,19,29.1z"/>
			<path fill="#06979C" d="M39,22.4c-1.8-0.1-3.3,0.3-4.5,1.6c-1.3,1.3-2.6,2.6-3.8,3.9c-0.2,0.2-0.2,0.2,0,0.4
				c1.2,1.2,2.5,2.4,3.7,3.6c1.1,1.2,2.5,1.8,4.1,1.8c3.1,0,5.6-2.5,5.6-5.6c0-0.4-0.1-0.9-0.1-1.3C43.4,24.6,41.4,22.6,39,22.4z
				 M40.9,29.2c-0.4,0-0.8,0-1.2,0c-0.2,0-0.3,0.1-0.3,0.3c0,0.4,0,0.8,0,1.2c0,0.6-0.5,1.1-1.1,1.1c-0.6,0-1-0.4-1-1.1
				c0-0.4,0-0.9,0-1.3c0-0.2,0-0.2-0.2-0.2c-0.3,0-0.5,0-0.8,0c-0.2,0-0.5,0-0.7,0c-0.6,0-1-0.4-1.1-1c0-0.6,0.3-1,1-1.1
				c0.5,0,1.1,0,1.6,0c0.2,0,0.3-0.1,0.3-0.3c0-0.4,0-0.9,0-1.3c0-0.7,0.4-1.1,1.1-1.1c0.6,0,1,0.4,1,1.1c0,0.4,0,0.8,0,1.2
				c0,0.2,0.1,0.3,0.3,0.3c0.4,0,0.8,0,1.2,0c0.5,0,0.9,0.5,0.9,1C41.9,28.7,41.4,29.2,40.9,29.2z"/>
		</g>
		<path fill="#FDFEFE" d="M16.4,27c0.9,0,1.8,0,2.7,0c0.5,0,0.9,0.5,0.9,1c0,0.6-0.5,1-1,1c-1.8,0-3.5,0-5.3,0c-0.6,0-1-0.4-1-1
			c0-0.6,0.4-1,0.9-1.1C14.5,27,15.4,27,16.4,27z"/>
		<path fill="#FDFEFE" d="M36.4,29.2c-0.2,0-0.5,0-0.7,0c-0.6,0-1-0.4-1.1-1c0-0.6,0.3-1,1-1.1c0.5,0,1.1,0,1.6,0
			c0.2,0,0.3-0.1,0.3-0.3c0-0.4,0-0.9,0-1.3c0-0.7,0.4-1.1,1.1-1.1c0.6,0,1,0.4,1,1.1c0,0.4,0,0.8,0,1.2c0,0.2,0.1,0.3,0.3,0.3
			c0.4,0,0.8,0,1.2,0c0.5,0,0.9,0.5,0.9,1c0,0.5-0.5,1-1,1c-0.4,0-0.8,0-1.2,0c-0.2,0-0.3,0.1-0.3,0.3c0,0.4,0,0.8,0,1.2
			c0,0.6-0.5,1.1-1.1,1.1c-0.6,0-1-0.4-1-1.1c0-0.4,0-0.9,0-1.3c0-0.2,0-0.2-0.2-0.2C36.9,29.2,36.6,29.2,36.4,29.2z"/>
	</g>
</g>
</svg>
