<?xml version="1.0" encoding="utf-8"?>
<!-- Generator: Adobe Illustrator 22.0.1, SVG Export Plug-In . SVG Version: 6.00 Build 0)  -->
<svg version="1.1" xmlns="http://www.w3.org/2000/svg" xmlns:xlink="http://www.w3.org/1999/xlink" x="0px" y="0px"
	 viewBox="0 0 612 612" style="enable-background:new 0 0 612 612;" xml:space="preserve">
<style type="text/css">
	.st0{display:none;}
	.st1{display:inline;fill:#FF0000;}
	.st2{fill:#563D7C;}
</style>
<g id="Layer_2" class="st0">
	<rect class="st1" width="614" height="614"/>
</g>
<g id="Layer_1">
	<g>
		<path class="st2" d="M368.3,269.7c10-8.6,15-20.8,15-36.8c0-18-4.5-30.7-13.5-38c-9-7.3-22-11-39-11h-102v98.6h102
			C345.8,282.5,358.3,278.3,368.3,269.7z"/>
		<path class="st2" d="M383.5,341.6c-10.6-9.6-25.2-14.2-44.2-14.2H228.8V439h110.5c19,0,33.8-4.9,44.2-14.8
			c10.5-9.8,15.8-23.8,15.8-41.8C399.3,364.7,394.1,351.2,383.5,341.6z"/>
		<path class="st2" d="M510,0H102C45.9,0,0,45.9,0,102v408c0,56.1,45.9,102,102,102h408c56.1,0,102-45.9,102-102V102
			C612,45.9,566.1,0,510,0z M454.3,429.7c-5,12.2-12.8,22.7-23.5,31.5s-24.3,15.8-41,21s-36.5,7.8-59.5,7.8h-164V133h173.5
			c32,0,57.7,7.3,77,22s29,36.8,29,66.5c0,18-4.4,33.4-13.2,46.2c-8.8,12.8-21.4,22.8-37.8,29.8v1c22,4.7,38.7,15.1,50,31.2
			c11.3,16.2,17,36.4,17,60.8C461.8,404.5,459.3,417.6,454.3,429.7z"/>
	</g>
</g>
</svg>
