<?xml version="1.0" encoding="utf-8"?>
<!-- Generator: Adobe Illustrator 22.0.1, SVG Export Plug-In . SVG Version: 6.00 Build 0)  -->
<svg version="1.1" id="Layer_1" xmlns="http://www.w3.org/2000/svg" xmlns:xlink="http://www.w3.org/1999/xlink" x="0px" y="0px"
	 viewBox="0 0 107.5 107.5" style="enable-background:new 0 0 107.5 107.5;" xml:space="preserve">
<style type="text/css">
	.st0{fill:#5C8DBC;}
</style>
<path class="st0" d="M101,26.9c0.7-1.4-42.4-25.3-42.4-25.3c-4.8-3.1-9.4,0-9.4,0S12.9,23.3,9.6,25.1s-3.3,5.2-3.3,5.2v47.8
	c0,2,0.9,2.6,0.9,2.6l0,0c1.2,2.6,41.6,25.2,41.6,25.2c5.3,3.3,10.2,0,10.2,0c36.6-20,41.3-24.4,41.7-25.4l0,0
	C102.3,79.5,101,26.9,101,26.9z M54.6,86c-18.4,0.9-27.6-14.5-28.4-16l0,0c-8.9-18.1-0.3-31.6-0.3-31.6
	c13.2-19.5,31.6-18.8,42.9-13.3c8.6,4.2,12.4,11.4,13,12.8L67.5,46c-2.8-4.6-7.9-7.8-13.7-7.8c-8.8,0-16,7.2-16,16
	c0,2.8,0.7,5.3,1.9,7.6l0,0c2.8,4.7,7.9,7.9,13.8,7.9c6.1,0,11.5-3.5,14.2-8.6l14.2,8.4C81.5,70.2,73.4,85.2,54.6,86z M86.6,55.9
	h-3.9v3.9h-4.2v-3.9h-4v-4.1h4v-4.1h4.2v4.1h3.9V55.9z M100.2,55.9h-3.9v3.9h-4.2v-3.9h-4v-4.1h4v-4.1h4.2v4.1h3.9V55.9z"/>
</svg>
