<?xml version="1.0" encoding="utf-8"?>
<!-- Generator: Adobe Illustrator 22.0.1, SVG Export Plug-In . SVG Version: 6.00 Build 0)  -->
<svg version="1.1" id="Layer_1" xmlns="http://www.w3.org/2000/svg" xmlns:xlink="http://www.w3.org/1999/xlink" x="0px" y="0px"
	 viewBox="0 0 456 518" style="enable-background:new 0 0 456 518;" xml:space="preserve">
<style type="text/css">
	.st0{fill:#0A71B9;}
	.st1{fill:none;}
</style>
<g>
	<path class="st0" d="M3.8,4.8l40,458.1l183.9,50.2L412.2,463l40-458.1L3.8,4.8L3.8,4.8z M343.6,387.6l-114.1,31.1L115,387.6
		l-8.5-90.7h55.4l3.4,45.1l61.7,15.3l63-15.3l7.2-75.8H103.5l-5.1-54.9h201.8l6.8-56.2H93.2l-5.5-55.8h255.9h26.8L343.6,387.6z"/>
	<g>
		<polygon class="st1" points="300.2,211.4 307,155.2 229.1,155.2 229.1,211.4 		"/>
		<polygon class="st1" points="290,342 297.2,266.3 229.1,266.3 229.1,356.5 		"/>
	</g>
</g>
</svg>
