<?xml version="1.0" encoding="utf-8"?>
<!-- Generator: Adobe Illustrator 22.0.1, SVG Export Plug-In . SVG Version: 6.00 Build 0)  -->
<svg version="1.1" id="Layer_1" xmlns="http://www.w3.org/2000/svg" xmlns:xlink="http://www.w3.org/1999/xlink" x="0px" y="0px"
	 viewBox="0 0 60 60" style="enable-background:new 0 0 60 60;" xml:space="preserve">
<style type="text/css">
	.st0{fill:#777777;}
</style>
<g>
	<path class="st0" d="M51.2,8.8C45.3,3,38.3,0,30,0S14.7,3,8.8,8.8C3,14.7,0,21.7,0,30s3,15.3,8.8,21.2C14.7,57.1,21.7,60,30,60
		s15.3-2.9,21.2-8.8C57,45.3,60,38.3,60,30S57,14.7,51.2,8.8z M28.6,30.9H11.9c0,1,0.1,2.1,0.3,3c0.2,0.9,0.7,1.7,1.3,2.3
		c0.6,0.7,1.3,1.2,2.2,1.6c0.9,0.4,1.9,0.6,3.2,0.6c1.6,0,2.8-0.4,3.8-1.1c1-0.7,1.6-1.5,2-2.9h3.6c-0.5,2.5-1.6,4.1-3.2,5.3
		c-1.7,1.3-3.8,1.9-6.3,1.9c-1.8,0-3.3-0.3-4.6-0.9s-2.4-1.4-3.3-2.4c-0.9-1-1.6-2.3-2-3.7c-0.4-1.4-0.7-3-0.8-4.7
		c0-1.7,0.3-3.3,0.8-4.7c0.5-1.4,1.2-2.6,2.2-3.7c0.9-1,2.1-1.9,3.3-2.4c1.3-0.6,2.7-0.9,4.2-0.9c2,0,3.6,0.4,4.9,1.2
		c1.3,0.8,2.4,1.9,3.2,3.1c0.8,1.3,1.3,2.7,1.6,4.1C28.5,28.3,28.7,29.5,28.6,30.9z M47.1,41.7L40.6,32l-6.5,9.6h-4.6l8.7-12.3
		l-8.1-11H35l5.6,8.2l5.8-8.2H51l-8,10.7c0,0,9,12.6,9,12.6H47.1z"/>
	<path class="st0" d="M22.8,23.4c-0.6-0.6-1.2-1-2-1.3s-1.6-0.5-2.5-0.5c-1,0-1.8,0.2-2.6,0.5c-0.7,0.3-1.4,0.8-2,1.4
		c-0.6,0.6-1,1.3-1.3,2c-0.3,0.8-0.5,1.6-0.6,2.4c0,0,12.8,0,12.8,0c-0.1-0.9-0.3-1.7-0.6-2.5C23.8,24.6,23.4,24,22.8,23.4z"/>
</g>
</svg>
