<?xml version="1.0" encoding="utf-8"?>
<!-- Generator: Adobe Illustrator 22.0.1, SVG Export Plug-In . SVG Version: 6.00 Build 0)  -->
<svg version="1.1" id="Layer_1" xmlns="http://www.w3.org/2000/svg" xmlns:xlink="http://www.w3.org/1999/xlink" x="0px" y="0px"
	 viewBox="0 0 1000 1000" style="enable-background:new 0 0 1000 1000;" xml:space="preserve">
<style type="text/css">
	.st0{fill:#DE4C36;}
</style>
<path class="st0" d="M981.1,455.4L544.5,18.8c-25.1-25.1-65.9-25.1-91.1,0l-90.7,90.7l115,115c26.7-9,57.4-3,78.7,18.3
	c21.4,21.4,27.4,52.4,18.2,79.2l110.8,110.8c26.8-9.2,57.8-3.3,79.2,18.2c29.9,29.9,29.9,78.4,0,108.4c-29.9,29.9-78.4,29.9-108.4,0
	c-22.5-22.5-28.1-55.6-16.7-83.3L536.2,372.7l0,272c7.5,3.7,14.3,8.6,20.3,14.5c29.9,29.9,29.9,78.4,0,108.4
	c-29.9,29.9-78.5,29.9-108.4,0c-29.9-30-29.9-78.5,0-108.4c7.2-7.2,15.7-12.9,25.1-16.7V367.9c-9.4-3.8-17.9-9.5-25.1-16.7
	c-22.7-22.6-28.1-55.9-16.5-83.8L318.2,154.1L18.9,453.4c-25.2,25.2-25.2,66,0,91.1l436.6,436.6c25.1,25.1,65.9,25.1,91.1,0
	l434.6-434.6C1006.3,521.4,1006.3,480.6,981.1,455.4"/>
</svg>
