<?xml version="1.0" encoding="utf-8"?>
<!-- Generator: Adobe Illustrator 22.0.1, SVG Export Plug-In . SVG Version: 6.00 Build 0)  -->
<svg version="1.1" id="Layer_1" xmlns="http://www.w3.org/2000/svg" xmlns:xlink="http://www.w3.org/1999/xlink" x="0px" y="0px"
	 viewBox="0 0 512 512" style="enable-background:new 0 0 512 512;" xml:space="preserve">
<style type="text/css">
	.st0{fill:#E34F26;}
</style>
<title>HTML5 Logo Badge</title>
<path class="st0" d="M30,0l41,460l184,52l185-52L481,0H30z M396,109l-3,29l-1,12H256h-1h-79l5,58h74h1h115h16l-2,15l-13,149l-1,10
	l-115,31.7v0.3h-1l-116-32l-7-89h26h30l4,45l63,17l63-17l7-73h-69h-1H129l-14-156l-1-15h141h1h141L396,109z"/>
</svg>
