<?xml version="1.0" encoding="utf-8"?>
<!-- Generator: Adobe Illustrator 22.0.1, SVG Export Plug-In . SVG Version: 6.00 Build 0)  -->
<svg version="1.1"
	 id="svg2" xmlns:cc="http://creativecommons.org/ns#" xmlns:dc="http://purl.org/dc/elements/1.1/" xmlns:inkscape="http://www.inkscape.org/namespaces/inkscape" xmlns:rdf="http://www.w3.org/1999/02/22-rdf-syntax-ns#" xmlns:svg="http://www.w3.org/2000/svg"
	 xmlns="http://www.w3.org/2000/svg" xmlns:xlink="http://www.w3.org/1999/xlink" x="0px" y="0px" viewBox="0 0 147.2 146.9"
	 style="enable-background:new 0 0 147.2 146.9;" xml:space="preserve">
<style type="text/css">
	.st0{fill:#8A4182;}
</style>
<g id="g10" transform="matrix(1.25,0,0,-1.25,0,187.5)">
	<g id="g12" transform="scale(0.1,0.1)">
		<g id="g14">
			<g>
				<g id="g16">
					<path id="path36" inkscape:connector-curvature="0" class="st0" d="M544.9,1014.2h90.8l22.5,31v243.1H522.4v-243.1
						L544.9,1014.2"/>
					<path id="path38" inkscape:connector-curvature="0" class="st0" d="M486.4,905.8l28,86.3l-22.6,31l-231.2,75.1l-42-129.2
						l231.3-75.1L486.4,905.8"/>
					<path id="path40" inkscape:connector-curvature="0" class="st0" d="M571.4,816.6L498,870l-36.5-11.9L318.6,661.4l109.9-79.8
						l142.9,196.7V816.6"/>
					<path id="path42" inkscape:connector-curvature="0" class="st0" d="M682.5,870l-73.4-53.3l0-38.4L752,581.6l109.9,79.8
						L719,858.1L682.5,870"/>
					<path id="path44" inkscape:connector-curvature="0" class="st0" d="M666.1,992.1l28.1-86.3l36.5-11.8L961.8,969l-42,129.2
						l-231.2-75.1L666.1,992.1"/>
					<path id="path46" inkscape:connector-curvature="0" class="st0" d="M590.3,1499.4c-323,0-585.9-262.8-585.9-585.8
						c0-323.1,262.8-586,585.9-586c323,0,585.8,262.9,585.8,586C1176.1,1236.6,913.3,1499.4,590.3,1499.4
						C590.3,1499.4,590.3,1499.4,590.3,1499.4z M590.3,1380.8c258,0,467.2-209.1,467.2-467.2c0-258.1-209.2-467.3-467.2-467.3
						C332.2,446.3,123,655.5,123,913.6C123,1171.6,332.2,1380.8,590.3,1380.8"/>
					<path id="path48" inkscape:connector-curvature="0" class="st0" d="M945.1,783.4l-175.8,57.1l11.6,35.8l175.8-57.1L945.1,783.4
						"/>
					<path id="path50" inkscape:connector-curvature="0" class="st0" d="M721,1065.6l-30.5,22.1l108.6,149.5l30.5-22.1L721,1065.6"
						/>
					<path id="path52" inkscape:connector-curvature="0" class="st0" d="M461.5,1066.9l-108.6,149.5l30.5,22.1l108.6-149.5
						L461.5,1066.9"/>
					<path id="path54" inkscape:connector-curvature="0" class="st0" d="M234.7,785.6l-11.6,35.8l175.8,57.1l11.6-35.8L234.7,785.6"
						/>
					<path id="path56" inkscape:connector-curvature="0" class="st0" d="M570.3,540.1h37.6v184.8h-37.6
						C570.3,724.9,570.3,540.1,570.3,540.1z"/>
				</g>
			</g>
		</g>
	</g>
</g>
</svg>
