<?xml version="1.0" encoding="utf-8"?>
<!-- Generator: Adobe Illustrator 22.0.1, SVG Export Plug-In . SVG Version: 6.00 Build 0)  -->
<svg version="1.1" id="Layer_1" xmlns="http://www.w3.org/2000/svg" xmlns:xlink="http://www.w3.org/1999/xlink" x="0px" y="0px"
	 viewBox="0 0 2427.8 2500" style="enable-background:new 0 0 2427.8 2500;" xml:space="preserve">
<style type="text/css">
	.st0{fill:#E54537;}
</style>
<path class="st0" d="M665.9,692.9c10.3,0,20.9-2.2,30.9-6.8l1096.1-509.6c36.7-17.1,52.6-60.7,35.6-97.4
	c-17.1-36.7-60.7-52.6-97.4-35.6L635,553.1c-36.7,17.1-52.6,60.7-35.6,97.4C611.8,677.2,638.3,692.9,665.9,692.9L665.9,692.9z
	 M1731.1,355L635,864.7c-36.7,17.1-52.6,60.7-35.6,97.4c12.4,26.7,38.9,42.4,66.5,42.4c10.3,0,20.9-2.2,30.9-6.9L1792.9,488
	c36.7-17.1,52.6-60.7,35.6-97.4C1811.4,353.9,1767.8,338,1731.1,355L1731.1,355z M1731.1,669.2L635,1178.8
	c-36.7,17.1-52.6,60.7-35.6,97.4c12.4,26.7,38.9,42.4,66.5,42.4c10.3,0,20.9-2.2,30.9-6.9l1096.1-509.6
	c36.7-17.1,52.6-60.7,35.6-97.4C1811.4,668.1,1767.8,652.1,1731.1,669.2L1731.1,669.2z M665.9,382.3c10.4,0,20.9-2.2,30.9-6.9
	l505.3-235.6c36.7-17.1,52.6-60.7,35.5-97.4c-17.1-36.7-60.7-52.6-97.4-35.5L634.9,242.5c-36.7,17.1-52.6,60.7-35.5,97.4
	C611.9,366.6,638.3,382.3,665.9,382.3z M1730.8,980.9L1343.3,1163c-25.7,12.1-42.1,37.9-42.1,66.3v365.9h-169.3v-273.1
	c0-40.5-32.8-73.3-73.3-73.3c-40.5,0-73.3,32.8-73.3,73.3v273.1H880.2c-31.2,0-54.8,28.2-49.3,58.9l24.7,137.3
	c4.3,23.8,25,41.2,49.3,41.2h257.2l-272.4,49.5c-19.9,3.6-33.1,22.7-29.5,42.6c3.2,17.4,18.3,30.1,36,30.1c2.2,0,4.4-0.2,6.6-0.6
	l624.8-113.5c9.3-1.7,17.7-7,23.2-14.7c12.9-7.3,22.4-20.3,24.8-35.8l21.2-137.3c4.7-30.3-18.8-57.7-49.5-57.7h-99.6v-319.3
	l345.3-162.3c36.6-17.2,52.4-60.9,35.1-97.5C1811.1,979.4,1767.4,963.7,1730.8,980.9L1730.8,980.9z M1514.6,1955.4l-624.8,113.4
	c-19.9,3.6-33.1,22.7-29.5,42.6c3.2,17.4,18.3,30.1,36,30.1c2.2,0,4.4-0.2,6.6-0.6l624.8-113.4c19.9-3.6,33.1-22.7,29.5-42.6
	c0,0,0,0,0,0C1553.5,1965,1534.5,1951.7,1514.6,1955.4L1514.6,1955.4z M1514.6,2149.1l-624.8,113.4c-19.9,3.6-33.1,22.7-29.5,42.6
	c0,0,0,0,0,0c3.2,17.4,18.3,30.1,36,30.1c2.2,0,4.4-0.2,6.6-0.6l624.8-113.4c19.9-3.6,33.1-22.7,29.5-42.6c0,0,0,0,0,0
	C1553.5,2158.7,1534.5,2145.4,1514.6,2149.1L1514.6,2149.1z M1439.8,2344.5l-466,80.3c-19.9,3.7-33.1,22.8-29.4,42.7
	c3.6,19.6,22.2,32.7,41.9,29.6l466-80.3c20-3.4,33.3-22.4,29.9-42.3C1478.7,2354.5,1459.8,2341.2,1439.8,2344.5L1439.8,2344.5z"/>
</svg>
