<?xml version="1.0" encoding="utf-8"?>
<!-- Generator: Adobe Illustrator 22.0.1, SVG Export Plug-In . SVG Version: 6.00 Build 0)  -->
<svg version="1.1" id="Layer_1" xmlns="http://www.w3.org/2000/svg" xmlns:xlink="http://www.w3.org/1999/xlink" x="0px" y="0px"
	 viewBox="0 0 68.5 146" style="enable-background:new 0 0 68.5 146;" xml:space="preserve">
<style type="text/css">
	.st0{fill:#58AA50;}
</style>
<g>
	<path class="st0" d="M40.5,123.4c-0.3,0.2-0.4,0.3-0.4,0.3c-7.3-3.4-6.4-31.4-6.4-31.5l0.9-69.3c-8.2-30.8-10.3,93.4-6.8,97.4
		c7,1.4,6.5,20.7,6.5,20.7l3.8,1.3c0,0-0.8-10.1,0.4-14.9C38.8,125.9,39.6,124.5,40.5,123.4z"/>
	<path class="st0" d="M45,119.7c0.1-0.1,0.2-0.1,0.2-0.1s0,0,0-0.1C45.1,119.6,45.1,119.6,45,119.7z"/>
</g>
<path class="st0" d="M40.1,123.7c0,0,33.1-21.8,25.4-67.1C58,23.7,40.4,12.9,38.5,8.7c-2.1-3-4.2-8.1-4.2-8.1l0.4,91.6
	C34.7,92.3,32.8,120.3,40.1,123.7 M32.3,124.9c0,0-31.1-21.2-29.3-58.6S26.7,10.6,31,7.2c2.8-3,2.9-4.1,3-7
	c1.9,4.2,3.6,62.1,3.8,68.9C38.8,95.4,34.5,119.9,32.3,124.9z"/>
</svg>
