<?xml version="1.0" encoding="utf-8"?>
<!-- Generator: Adobe Illustrator 22.0.1, SVG Export Plug-In . SVG Version: 6.00 Build 0)  -->
<svg version="1.1" id="Layer_1" xmlns="http://www.w3.org/2000/svg" xmlns:xlink="http://www.w3.org/1999/xlink" x="0px" y="0px"
	 viewBox="0 0 146 146" style="enable-background:new 0 0 146 146;" xml:space="preserve">
<style type="text/css">
	.st0{fill:#58AA50;}
</style>
<g>
	<path class="st0" d="M77.5,123.4c-0.3,0.2-0.4,0.3-0.4,0.3c-7.3-3.4-6.4-31.4-6.4-31.5l0.9-69.3c-8.2-30.8-10.3,93.4-6.8,97.4
		c7,1.4,6.5,20.7,6.5,20.7l3.8,1.3c0,0-0.8-10.1,0.4-14.9C75.8,125.9,76.6,124.5,77.5,123.4z"/>
	<path class="st0" d="M82,119.7c0.1-0.1,0.2-0.1,0.2-0.1c0,0,0,0,0-0.1C82.1,119.6,82.1,119.6,82,119.7z"/>
</g>
<path class="st0" d="M77.1,123.7c0,0,33.1-21.8,25.4-67.1C95,23.7,77.4,12.9,75.5,8.7c-2.1-3-4.2-8.1-4.2-8.1l0.4,91.6
	C71.7,92.3,69.8,120.3,77.1,123.7 M69.3,124.9c0,0-31.1-21.2-29.3-58.6S63.7,10.6,68,7.2c2.8-3,2.9-4.1,3-7
	c1.9,4.2,3.6,62.1,3.8,68.9C75.8,95.4,71.5,119.9,69.3,124.9z"/>
</svg>
