<?xml version="1.0" encoding="utf-8"?>
<!-- Generator: Adobe Illustrator 22.0.1, SVG Export Plug-In . SVG Version: 6.00 Build 0)  -->
<svg version="1.1" id="Layer_1" xmlns="http://www.w3.org/2000/svg" xmlns:xlink="http://www.w3.org/1999/xlink" x="0px" y="0px"
	 viewBox="0 0 100 100" style="enable-background:new 0 0 100 100;" xml:space="preserve">
<style type="text/css">
	.st0{fill:#764ABC;}
</style>
<g>
	<path class="st0" d="M69.2,68.4c3.7-0.4,6.4-3.5,6.3-7.3c-0.1-3.8-3.3-6.8-7.1-6.8h-0.3c-3.9,0.1-6.9,3.4-6.8,7.3
		c0.1,1.9,0.9,3.5,2,4.7c-4.3,8.4-10.8,14.6-20.7,19.8C36,89.6,29.1,90.9,22.2,90c-5.7-0.8-10.1-3.3-12.9-7.4
		c-4-6.2-4.4-12.9-1-19.5c2.4-4.8,6.2-8.3,8.6-10.1c-0.5-1.6-1.3-4.4-1.6-6.4C-3.1,59.7-1.2,77.6,4.4,86.1
		C8.5,92.4,17,96.3,26.3,96.3c2.5,0,5-0.3,7.6-0.9C50,92.2,62.3,82.7,69.2,68.4z"/>
	<path class="st0" d="M91.4,52.8c-9.6-11.2-23.7-17.4-39.8-17.4h-2c-1.1-2.3-3.5-3.8-6.2-3.8h-0.3c-3.9,0.1-6.9,3.4-6.8,7.3
		c0.1,3.8,3.3,6.8,7.1,6.8h0.3c2.8-0.1,5.2-1.9,6.2-4.3H52c9.6,0,18.7,2.8,26.9,8.2c6.3,4.2,10.8,9.6,13.4,16.1
		c2.1,5.3,2,10.5-0.3,14.9C88.5,87.3,82.6,91,74.7,91c-5,0-9.8-1.5-12.4-2.6c-1.4,1.3-3.9,3.3-5.7,4.5c5.4,2.5,11,3.9,16.3,3.9
		c12.1,0,21.1-6.7,24.5-13.4C101.1,76.1,100.8,63.5,91.4,52.8z"/>
	<path class="st0" d="M27.3,70.6c0.1,3.8,3.3,6.8,7.1,6.8h0.3c3.9-0.1,6.9-3.4,6.8-7.3c-0.1-3.8-3.3-6.8-7.1-6.8h-0.3
		c-0.3,0-0.6,0-0.9,0.1c-5.2-8.6-7.3-17.9-6.6-28c0.5-7.6,3-14.1,7.4-19.5c3.7-4.7,10.7-6.9,15.5-7.1c13.4-0.3,19,16.4,19.4,23.1
		c1.6,0.4,4.4,1.3,6.3,1.9c-1.5-20.4-14.1-31-26.2-31c-11.3,0-21.8,8.2-26,20.3c-5.8,16.1-2,31.7,5,43.9
		C27.6,67.8,27.2,69.2,27.3,70.6z"/>
</g>
</svg>
