<?xml version="1.0" encoding="utf-8"?>
<!-- Generator: Adobe Illustrator 22.0.1, SVG Export Plug-In . SVG Version: 6.00 Build 0)  -->
<svg version="1.1" id="Layer_1" xmlns="http://www.w3.org/2000/svg" xmlns:xlink="http://www.w3.org/1999/xlink" x="0px" y="0px"
	 viewBox="0 0 100 100" style="enable-background:new 0 0 100 100;" xml:space="preserve">
<style type="text/css">
	.st0{fill:#06979C;}
</style>
<g id="uyietG.tif">
	<g>
		<g>
			<path class="st0" d="M93.7,26.5c-2.4-4.3-5.4-8.1-8.9-11.7c-5-5-10.5-8.9-17-11.3c-3.3-1.3-6.8-2-10.4-2.6
				c-1.3-0.2-2.8-0.4-4.3-0.4c0,0-0.2,0-0.2-0.2c-1.7,0-3.3,0-5,0c-0.4,0.2-0.7,0-1.1,0.2C40.4,1,34.1,2.5,28.3,5.3
				s-10.7,6.7-15,11.3c-3.5,3.9-6.5,8.1-8.7,13c-2.4,5.4-3.9,10.9-4.1,16.8c0,0.2,0,0.4-0.2,0.4c0,2.2,0,4.4,0,6.7
				c0.2,0.4,0.2,0.9,0.2,1.3c0.9,10.9,5.2,20.5,12.6,28.5c4.1,4.4,8.5,8,13.7,10.7c4.4,2.4,9.3,4.1,14.2,4.8
				c2.6,0.4,5.4,0.7,8.1,0.7c0.2,0,0.4,0,0.6,0c-0.2-0.2-0.4-0.4-0.6-0.6c0.2,0.2,0.4,0.4,0.6,0.6c2.8,0,5.6-0.2,8.3-0.6
				c4.1-0.6,8-1.9,11.8-3.5c5.4-2.4,10.2-5.7,14.4-9.8c7.4-7.2,12.4-15.5,14.2-25.7c0.4-1.9,0.6-3.7,0.7-5.4
				c0.2-1.1,0.2-2.4,0.2-3.5C99.6,42.3,97.9,34.1,93.7,26.5z M18.4,68L18.4,68L18.4,68z M18.5,68.2L18.5,68.2L18.5,68.2L18.5,68.2
				L18.5,68.2z M83.1,67.1c-4.4,3.5-9.4,4.6-15,3.9c-4.1-0.6-7.4-2.4-10.4-5.4c-2.4-2.2-4.6-4.6-6.8-7c-0.4-0.4-0.6-0.4-0.7,0
				c-2.4,2.6-5,5-7.4,7.6c-3.5,3.3-7.6,5-12.6,5.2c-3.9,0-7.6-0.9-10.9-3c-0.4-0.2-0.6-0.4-0.9-0.7l0,0l0,0l0,0c0,0-0.2,0-0.2-0.2
				c-1.5-1.3-2.8-2.6-3.9-4.1c-2.2-3-3.3-6.5-3.5-10.2c-0.6-9.4,5.6-16.1,11.5-18.7c3.3-1.5,6.7-1.7,10.2-1.3
				c4.3,0.6,7.8,2.4,10.7,5.4c2.4,2.4,4.6,4.6,7,7c0.2,0.2,0.4,0.2,0.7,0c2.4-2.4,4.8-5,7.4-7.4c2.6-2.6,5.7-4.3,9.3-5
				c3.5-0.7,7-0.6,10.5,0.7c4.8,1.7,8.1,5,10.5,9.4c0,0.2,0.2,0.2,0.2,0.4l0,0c0.7,1.7,1.3,3.3,1.5,5.2
				C91.1,56.3,88.9,62.4,83.1,67.1z M18.2,67.8L18.2,67.8L18.2,67.8z M18.2,67.8L18.2,67.8L18.2,67.8z M18.2,67.6L18.2,67.6
				L18.2,67.6z"/>
			<path class="st0" d="M37,45c-2.6-2.8-5.7-3.7-9.4-3.1c-4.4,0.6-8.1,5-8.7,9.1c-0.7,6.5,4.6,11.8,10.5,11.7c0.7,0,1.3,0,2-0.2
				c1.7-0.4,3.1-1.1,4.4-2.2c2.6-2.6,5-5.2,7.6-7.6c0.4-0.4,0.4-0.4,0-0.7C41.5,49.5,39.3,47.3,37,45z M35.4,54.1
				c-3.3,0-6.5,0-9.8,0c-1.1,0-1.9-0.7-1.9-1.9c0-1.1,0.7-1.9,1.7-2c1.7,0,3.3,0,5,0s3.3,0,5,0c0.9,0,1.7,0.9,1.7,1.9
				C37.2,53.2,36.3,54.1,35.4,54.1z"/>
			<path class="st0" d="M72.4,41.7c-3.3-0.2-6.1,0.6-8.3,3c-2.4,2.4-4.8,4.8-7,7.2c-0.4,0.4-0.4,0.4,0,0.7c2.2,2.2,4.6,4.4,6.8,6.7
				c2,2.2,4.6,3.3,7.6,3.3c5.7,0,10.4-4.6,10.4-10.4c0-0.7-0.2-1.7-0.2-2.4C80.5,45.8,76.8,42.1,72.4,41.7z M75.9,54.3
				c-0.7,0-1.5,0-2.2,0c-0.4,0-0.6,0.2-0.6,0.6c0,0.7,0,1.5,0,2.2c0,1.1-0.9,2-2,2c-1.1,0-1.9-0.7-1.9-2c0-0.7,0-1.7,0-2.4
				c0-0.4,0-0.4-0.4-0.4c-0.6,0-0.9,0-1.5,0c-0.4,0-0.9,0-1.3,0c-1.1,0-1.9-0.7-2-1.9c0-1.1,0.6-1.9,1.9-2c0.9,0,2,0,3,0
				c0.4,0,0.6-0.2,0.6-0.6c0-0.7,0-1.7,0-2.4c0-1.3,0.7-2,2-2c1.1,0,1.9,0.7,1.9,2c0,0.7,0,1.5,0,2.2c0,0.4,0.2,0.6,0.6,0.6
				c0.7,0,1.5,0,2.2,0c0.9,0,1.7,0.9,1.7,1.9C77.8,53.4,76.8,54.3,75.9,54.3z"/>
		</g>
	</g>
</g>
</svg>
