<?xml version="1.0" encoding="utf-8"?>
<!-- Generator: Adobe Illustrator 22.0.1, SVG Export Plug-In . SVG Version: 6.00 Build 0)  -->
<svg version="1.1" id="Layer_1" xmlns="http://www.w3.org/2000/svg" xmlns:xlink="http://www.w3.org/1999/xlink" x="0px" y="0px"
	 viewBox="0 0 108 108" style="enable-background:new 0 0 108 108;" xml:space="preserve">
<style type="text/css">
	.st0{fill:#5C8DBC;}
</style>
<path class="st0" d="M101.1,27.1c0.7-1.4-42.4-25.3-42.4-25.3c-4.8-3.1-9.4,0-9.4,0S13,23.5,9.7,25.3s-3.3,5.2-3.3,5.2v47.8
	c0,2,0.9,2.6,0.9,2.6l0,0c1.2,2.6,41.6,25.2,41.6,25.2c5.3,3.3,10.2,0,10.2,0c36.6-20,41.3-24.4,41.7-25.4l0,0
	C102.4,79.7,101.1,27.1,101.1,27.1z M54.7,86.2c-18.4,0.9-27.6-14.5-28.4-16l0,0C17.4,52.1,26,38.6,26,38.6
	c13.2-19.5,31.6-18.8,42.9-13.3c8.6,4.2,12.4,11.4,13,12.8l-14.3,8.1c-2.8-4.6-7.9-7.8-13.7-7.8c-8.8,0-16,7.2-16,16
	c0,2.8,0.7,5.3,1.9,7.6l0,0c2.8,4.7,7.9,7.9,13.8,7.9c6.1,0,11.5-3.5,14.2-8.6L82,69.7C81.6,70.4,73.5,85.4,54.7,86.2z M86.7,56.1
	h-3.9V60h-4.2v-3.9h-4V52h4v-4.1h4.2V52h3.9V56.1z M100.3,56.1h-3.9V60h-4.2v-3.9h-4V52h4v-4.1h4.2V52h3.9V56.1z"/>
</svg>
