<?xml version="1.0" encoding="utf-8"?>
<!-- Generator: Adobe Illustrator 22.0.1, SVG Export Plug-In . SVG Version: 6.00 Build 0)  -->
<svg version="1.1" id="Layer_1" xmlns="http://www.w3.org/2000/svg" xmlns:xlink="http://www.w3.org/1999/xlink" x="0px" y="0px"
	 viewBox="0 0 100 100" style="enable-background:new 0 0 100 100;" xml:space="preserve">
<style type="text/css">
	.st0{fill:#777777;}
</style>
<g>
	<path class="st0" d="M85,15C75.2,5.4,63.7,0.5,50,0.5S24.8,5.4,15,15C5.4,24.8,0.5,36.3,0.5,50S5.4,75.2,15,85
		c9.7,9.7,21.3,14.5,35,14.5S75.2,94.7,85,85c9.6-9.7,14.5-21.3,14.5-35S94.6,24.8,85,15z M47.7,51.5H20.1c0,1.6,0.2,3.5,0.5,5
		c0.3,1.5,1.2,2.8,2.1,3.8c1,1.2,2.1,2,3.6,2.6c1.5,0.7,3.1,1,5.3,1c2.6,0,4.6-0.7,6.3-1.8c1.7-1.2,2.6-2.5,3.3-4.8h5.9
		c-0.8,4.1-2.6,6.8-5.3,8.7c-2.8,2.1-6.3,3.1-10.4,3.1c-3,0-5.4-0.5-7.6-1.5c-2.1-1-4-2.3-5.4-4s-2.6-3.8-3.3-6.1
		c-0.7-2.3-1.2-5-1.3-7.8c0-2.8,0.5-5.4,1.3-7.8c0.8-2.3,2-4.3,3.6-6.1c1.5-1.6,3.5-3.1,5.4-4c2.1-1,4.5-1.5,6.9-1.5
		c3.3,0,5.9,0.7,8.1,2c2.1,1.3,4,3.1,5.3,5.1c1.3,2.1,2.1,4.5,2.6,6.8C47.5,47.2,47.9,49.2,47.7,51.5z M78.2,69.3l-10.7-16
		L56.8,69.1h-7.6l14.4-20.3L50.2,30.7h8.1l9.2,13.5l9.6-13.5h7.6L71.4,48.3l14.9,20.8h-8.1V69.3z"/>
	<path class="st0" d="M38.1,39.1c-1-1-2-1.7-3.3-2.1s-2.6-0.8-4.1-0.8c-1.7,0-3,0.3-4.3,0.8c-1.2,0.5-2.3,1.3-3.3,2.3
		c-1,1-1.6,2.1-2.1,3.3c-0.5,1.3-0.8,2.6-1,4h21.1c-0.2-1.5-0.5-2.8-1-4.1C39.8,41.1,39.1,40.1,38.1,39.1z"/>
</g>
</svg>
