<?xml version="1.0" encoding="utf-8"?>
<!-- Generator: Adobe Illustrator 22.0.1, SVG Export Plug-In . SVG Version: 6.00 Build 0)  -->
<svg version="1.1" id="Layer_1" xmlns="http://www.w3.org/2000/svg" xmlns:xlink="http://www.w3.org/1999/xlink" x="0px" y="0px"
	 viewBox="0 0 500 500" style="enable-background:new 0 0 500 500;" xml:space="preserve">
<style type="text/css">
	.st0{fill:#DA4648;}
</style>
<path class="st0" d="M315.2,403.6l13.1-22.4c0,0-29.8,12.2-79.8,12.2s-79.3-11.8-79.3-11.8l14.7,24.4l5.2,77.1
	c0,8.4,27.2,14.9,60.7,14.9c33.5,0,60.7-6.5,60.7-14.9l4.7-79.2V403.6z M327.9,258c-15.9,0.9-23.8,18.7-31.8,37.3
	c-2.9,6.8-13,35.9-19.6,32.3c-6.6-3.6,8.5-27.5,12.8-41.7c-4.9,3.6-22.8,17.5-27.4,4.5c-7.4,6.5-23.3,9.9-21.5-6.8
	c-4,7.1-12.8,17-23.5,12.7c-13.9-5.3,8.1-49.8,13.6-47.7c5.5,2.5-1.1,12.4-2.8,16.4c-3.8,8.7-8.2,19.8-5.3,22c5,4,18.7-14.5,19-14.9
	c2.6-3.4,9.9-25.4,15.8-22.9c5.9,2.8-14.7,31.9-7,37.8c1.5,1.2,7.9-0.6,11.8-5c2.5-2.5,1.6-8.7,9.9-28.5
	c8.4-19.8,15.8-44.6,21.5-42.7s1,14.5-1.1,19.5c-9.6,22.3-26.2,58.8-18.4,56c7.7-2.8,11.8-2.8,19.5-11.8c7.7-9,7.1-23.8,12.4-23.5
	c5,0.3,4.3,5.3,3.1,8.7c5-5.6,23.8-17.9,28.2-5.9c5.3,14.2-26.9,35-18.9,33.7c7.7-0.9,20.4-9,26-16.4l14.9-134.3
	c0,0-15.2,12.4-110.8,12.4s-109.2-12.1-109.2-12.1l12.7,122.5c6.8-19.2,22.9-58.2,48-56.6c11.5,0.6,26.9,22.9,13.6,23.5
	c-5.6,0.3-6.2-11.1-12.7-12.7c-5-0.9-11.5,2.8-15.8,7.1c-8.4,8.4-26.9,41.5-24.4,57.9c3.1,21,29.1-7.1,33.4-15.5
	c3.1-5.9,5.3-23.5,11.8-21.7c6.8,1.9-0.6,20.1-5.6,35.9c-5.6,17.9-8.4,36.8-15.2,34.7c-6.8-2.2,4.3-25.4,3.7-29.4
	c-6.5,6.2-18.3,21-33.7,13.6l7.7,76.4c0,0,21,16.4,84.2,16.4s85.1-16.4,85.1-16.4l9.9-88.5c-8,8-33.4,22-35,6.2
	c-1.2-12.7,27.5-30.9,20.1-31.3L327.9,258z M360.5,15.8l-55,57.9l-10,39.3c38.9,2.5,65.9,8,65.9,14.3c0,8.7-49.9,15.7-111.4,15.7
	s-111.4-7.1-111.4-15.8s49.9-15.8,111.4-15.8c8.7,0,17.4,0,26.1,0.3l11.6-47l58.4-61.9c1.4-1.9,5.8-0.3,9.8,3.1c4,3.1,6.2,7.1,5,9
	v0.6L360.5,15.8z M281.3,135.6c0,0-10.8,0-12.6-1.7c-0.5-0.5-0.7-1.2-0.7-1.9c0-1.2,0.8-1.9,1.9-2.3l0.9,1.5
	c-0.4,0.1-0.6,0.3-0.7,0.5c0,0.9,6.5,1.5,11.5,1.4c5-0.1,11-0.5,11-1.3c0-0.2-0.5-0.5-1.2-0.7l0.9-1.5c1.3,0.4,2.4,1.2,2.4,2.5
	c0,2.3-2.9,2.7-4.8,2.9C287.6,135.4,281.3,135.6,281.3,135.6L281.3,135.6z"/>
</svg>
