<?xml version="1.0" encoding="utf-8"?>
<!-- Generator: Adobe Illustrator 22.0.1, SVG Export Plug-In . SVG Version: 6.00 Build 0)  -->
<svg version="1.1" id="Layer_1" xmlns="http://www.w3.org/2000/svg" xmlns:xlink="http://www.w3.org/1999/xlink" x="0px" y="0px"
	 viewBox="0 0 512 512" style="enable-background:new 0 0 512 512;" xml:space="preserve">
<style type="text/css">
	.st0{fill:#539E43;}
</style>
<g>
	<path class="st0" d="M256,506.7c-6.9,0-13.4-1.8-19.4-5.1l-61.3-36.4c-9.2-5.1-4.6-6.9-1.8-7.8c12.5-4.2,14.8-5.1,27.7-12.5
		c1.4-0.9,3.2-0.5,4.6,0.5l47,28.1c1.8,0.9,4.2,0.9,5.5,0l184-106.5c1.8-0.9,2.8-2.8,2.8-5.1V149.3c0-2.3-0.9-4.2-2.8-5.1
		l-184-106.1c-1.8-0.9-4.2-0.9-5.5,0l-184,106.1c-1.8,0.9-2.8,3.2-2.8,5.1v212.6c0,1.8,0.9,4.2,2.8,5.1L119,396
		c27.2,13.8,44.3-2.3,44.3-18.4V167.8c0-2.8,2.3-5.5,5.5-5.5h23.5c2.8,0,5.5,2.3,5.5,5.5v209.8c0,36.4-19.8,57.6-54.4,57.6
		c-10.6,0-18.9,0-42.4-11.5L52.6,396c-12-6.9-19.4-19.8-19.4-33.7V149.8c0-13.8,7.4-26.7,19.4-33.7l184-106.5
		c11.5-6.5,27.2-6.5,38.7,0l184,106.5c12,6.9,19.4,19.8,19.4,33.7v212.6c0,13.8-7.4,26.7-19.4,33.7l-184,106.5
		C269.4,505.3,262.5,506.7,256,506.7L256,506.7z M312.7,360.5c-80.7,0-97.3-36.9-97.3-68.3c0-2.8,2.3-5.5,5.5-5.5h24
		c2.8,0,5.1,1.8,5.1,4.6c3.7,24.4,14.3,36.4,63.2,36.4c38.7,0,55.3-8.8,55.3-29.5c0-12-4.6-20.8-65-26.7
		c-50.3-5.1-81.6-16.1-81.6-56.3c0-37.4,31.4-59.5,83.9-59.5c59,0,88.1,20.3,91.8,64.6c0,1.4-0.5,2.8-1.4,4.2
		c-0.9,0.9-2.3,1.8-3.7,1.8h-24c-2.3,0-4.6-1.8-5.1-4.2c-5.5-25.4-19.8-33.7-57.6-33.7c-42.4,0-47.5,14.8-47.5,25.8
		c0,13.4,6,17.5,63.2,24.9c56.7,7.4,83.5,18,83.5,57.6C404.5,337.5,371.3,360.5,312.7,360.5L312.7,360.5z"/>
</g>
</svg>
